<?xml version="1.0" encoding="UTF-8"?>
<svg width="76px" height="75px" viewBox="0 0 76 75" version="1.1" xmlns="http://www.w3.org/2000/svg" xmlns:xlink="http://www.w3.org/1999/xlink">
    <title>89135C60-7008-435D-A1CD-7B8CD9116C2A</title>
    <g id="icons" stroke="none" stroke-width="1" fill="none" fill-rule="evenodd">
        <g id="phenqicons" transform="translate(-545.000000, -342.000000)">
            <rect id="Rectangle-Copy-33" stroke="#979797" x="529" y="324.5" width="109" height="109"></rect>
            <g id="500kcustomers" transform="translate(545.500000, 342.000000)">
                <circle id="Oval" fill="#FFFFFF" cx="37.5" cy="37.5" r="37.5"></circle>
                <path d="M18.9304011,37.4111998 C19.4466678,37.4111998 19.9424011,37.3261331 20.417601,37.1559998 C20.892801,36.9858665 21.3122677,36.7365332 21.676001,36.4079999 C22.0397343,36.0794665 22.3301343,35.6746666 22.5472009,35.1935999 C22.7642676,34.7125333 22.8728009,34.1669333 22.8728009,33.5568 C22.8728009,32.9584001 22.7789342,32.4392001 22.5912009,31.9992001 C22.4034676,31.5592001 22.1512009,31.1954668 21.834401,30.9080002 C21.517601,30.6205335 21.1450677,30.4064002 20.716801,30.2656002 C20.2885344,30.1248002 19.8338677,30.0544002 19.3528011,30.0544002 C19.0594678,30.0544002 18.7984011,30.0866669 18.5696012,30.1512002 C18.3408012,30.2157336 18.1090679,30.3066669 17.8744012,30.4240002 L17.8744012,30.4240002 L18.1032012,27.7136004 L22.3272009,27.7136004 L22.3272009,26.0064005 L16.3432013,26.0064005 L16.0088013,31.5328001 L16.9768013,32.1488001 C17.3170679,31.9258668 17.6104012,31.7645335 17.8568012,31.6648001 C18.1032012,31.5650668 18.4082678,31.5152001 18.7720011,31.5152001 C19.3938678,31.5152001 19.8925344,31.6970668 20.2680011,32.0608001 C20.6434677,32.4245334 20.831201,32.9408001 20.831201,33.6096 C20.831201,34.2901333 20.628801,34.8181333 20.2240011,35.1935999 C19.8192011,35.5690666 19.3000011,35.7567999 18.6664012,35.7567999 C18.1032012,35.7567999 17.6104012,35.6365332 17.1880012,35.3959999 C16.7656013,35.1554666 16.384268,34.8767999 16.0440013,34.56 L16.0440013,34.56 L15.1112014,35.8623999 C15.521868,36.2730665 16.0352013,36.6338665 16.6512013,36.9447998 C17.2672012,37.2557331 18.0269345,37.4111998 18.9304011,37.4111998 Z M28.2232006,37.4111998 C29.3965338,37.4111998 30.3234671,36.9095998 31.0040004,35.9063999 C31.6845337,34.9031999 32.0248004,33.4512 32.0248004,31.5504001 C32.0248004,29.6613336 31.6845337,28.229867 31.0040004,27.2560004 C30.3234671,26.2821338 29.3965338,25.7952005 28.2232006,25.7952005 C27.0498673,25.7952005 26.122934,26.2792005 25.4424007,27.2472004 C24.7618675,28.2152003 24.4216008,29.6496003 24.4216008,31.5504001 C24.4216008,33.4512 24.7618675,34.9031999 25.4424007,35.9063999 C26.122934,36.9095998 27.0498673,37.4111998 28.2232006,37.4111998 Z M28.2232006,35.8271999 C27.9533339,35.8271999 27.7040006,35.7538666 27.4752006,35.6071999 C27.2464006,35.4605332 27.0498673,35.2170666 26.8856007,34.8767999 C26.721334,34.5365333 26.5922673,34.0965333 26.4984007,33.5568 C26.404534,33.0170667 26.3576007,32.3482668 26.3576007,31.5504001 C26.3576007,30.7642669 26.404534,30.1042669 26.4984007,29.5704003 C26.5922673,29.0365336 26.721334,28.6053337 26.8856007,28.2768003 C27.0498673,27.948267 27.2464006,27.7165337 27.4752006,27.5816004 C27.7040006,27.4466671 27.9533339,27.3792004 28.2232006,27.3792004 C28.4930672,27.3792004 28.7424006,27.4466671 28.9712005,27.5816004 C29.2000005,27.7165337 29.3965338,27.948267 29.5608005,28.2768003 C29.7250672,28.6053337 29.8541338,29.0365336 29.9480005,29.5704003 C30.0418671,30.1042669 30.0888005,30.7642669 30.0888005,31.5504001 C30.0888005,32.3482668 30.0418671,33.0170667 29.9480005,33.5568 C29.8541338,34.0965333 29.7250672,34.5365333 29.5608005,34.8767999 C29.3965338,35.2170666 29.2000005,35.4605332 28.9712005,35.6071999 C28.7424006,35.7538666 28.4930672,35.8271999 28.2232006,35.8271999 Z M37.252,37.4111998 C38.4253333,37.4111998 39.3522666,36.9095998 40.0327999,35.9063999 C40.7133332,34.9031999 41.0535998,33.4512 41.0535998,31.5504001 C41.0535998,29.6613336 40.7133332,28.229867 40.0327999,27.2560004 C39.3522666,26.2821338 38.4253333,25.7952005 37.252,25.7952005 C36.0786668,25.7952005 35.1517335,26.2792005 34.4712002,27.2472004 C33.7906669,28.2152003 33.4504003,29.6496003 33.4504003,31.5504001 C33.4504003,33.4512 33.7906669,34.9031999 34.4712002,35.9063999 C35.1517335,36.9095998 36.0786668,37.4111998 37.252,37.4111998 Z M37.252,35.8271999 C36.9821334,35.8271999 36.7328001,35.7538666 36.5040001,35.6071999 C36.2752001,35.4605332 36.0786668,35.2170666 35.9144001,34.8767999 C35.7501335,34.5365333 35.6210668,34.0965333 35.5272001,33.5568 C35.4333335,33.0170667 35.3864002,32.3482668 35.3864002,31.5504001 C35.3864002,30.7642669 35.4333335,30.1042669 35.5272001,29.5704003 C35.6210668,29.0365336 35.7501335,28.6053337 35.9144001,28.2768003 C36.0786668,27.948267 36.2752001,27.7165337 36.5040001,27.5816004 C36.7328001,27.4466671 36.9821334,27.3792004 37.252,27.3792004 C37.5218667,27.3792004 37.7712,27.4466671 38,27.5816004 C38.2288,27.7165337 38.4253333,27.948267 38.5896,28.2768003 C38.7538666,28.6053337 38.8829333,29.0365336 38.9767999,29.5704003 C39.0706666,30.1042669 39.1175999,30.7642669 39.1175999,31.5504001 C39.1175999,32.3482668 39.0706666,33.0170667 38.9767999,33.5568 C38.8829333,34.0965333 38.7538666,34.5365333 38.5896,34.8767999 C38.4253333,35.2170666 38.2288,35.4605332 38,35.6071999 C37.7712,35.7538666 37.5218667,35.8271999 37.252,35.8271999 Z M45.2775996,37.1999998 L45.2775996,33.8384 L46.9319995,31.7792001 L50.0471993,37.1999998 L52.2999991,37.1999998 L48.1639994,30.1776002 L51.7015992,25.6896005 L49.4311993,25.6896005 L45.3303996,30.9168002 L45.2775996,30.9168002 L45.2775996,25.6896005 L43.2359997,25.6896005 L43.2359997,37.1999998 L45.2775996,37.1999998 Z M57.5623988,35.4575999 L57.5623988,32.1312001 L60.7127986,32.1312001 L60.7127986,30.6528002 L57.5623988,30.6528002 L57.5623988,27.3264004 L56.0311989,27.3264004 L56.0311989,30.6528002 L52.8807991,30.6528002 L52.8807991,32.1312001 L56.0311989,32.1312001 L56.0311989,35.4575999 L57.5623988,35.4575999 Z M17.918362,46.4959993 C18.254362,46.4959993 18.5596953,46.4306659 18.834362,46.2999993 C19.1090287,46.1693326 19.3530287,45.9813326 19.566362,45.7359993 L19.566362,45.7359993 L19.070362,45.1519993 C18.9210287,45.3119993 18.7556953,45.4413326 18.574362,45.5399993 C18.3930287,45.6386659 18.1850287,45.6879993 17.950362,45.6879993 C17.5076953,45.6879993 17.1570287,45.5186659 16.898362,45.1799993 C16.6396953,44.8413326 16.510362,44.3733326 16.510362,43.7759993 C16.510362,43.4826659 16.546362,43.2186659 16.618362,42.9839993 C16.690362,42.7493326 16.7916953,42.5506659 16.922362,42.3879993 C17.0530287,42.2253326 17.2076953,42.0999993 17.386362,42.0119993 C17.5650287,41.9239993 17.7610287,41.8799993 17.974362,41.8799993 C18.1770287,41.8799993 18.358362,41.9213326 18.518362,42.0039993 C18.678362,42.0866659 18.8276953,42.1973326 18.966362,42.3359993 L18.966362,42.3359993 L19.462362,41.7359993 C19.2970287,41.5599993 19.086362,41.4053326 18.830362,41.2719993 C18.574362,41.1386659 18.2810287,41.0719993 17.950362,41.0719993 C17.6196953,41.0719993 17.3090287,41.1333326 17.018362,41.2559993 C16.7276953,41.3786659 16.474362,41.5573326 16.258362,41.7919993 C16.042362,42.0266659 15.8716953,42.3133326 15.746362,42.6519993 C15.6210287,42.9906659 15.558362,43.3733326 15.558362,43.7999993 C15.558362,44.2319993 15.6196953,44.6159993 15.742362,44.9519993 C15.8650287,45.2879993 16.0316953,45.5706659 16.242362,45.7999993 C16.4530287,46.0293326 16.702362,46.2026659 16.990362,46.3199993 C17.278362,46.4373326 17.5876953,46.4959993 17.918362,46.4959993 Z M22.606726,46.4959993 C22.910726,46.4959993 23.1840593,46.4519993 23.426726,46.3639993 C23.6693927,46.2759993 23.8773927,46.1359993 24.050726,45.9439993 C24.2240593,45.7519993 24.3560593,45.5053326 24.446726,45.2039993 C24.5373927,44.9026659 24.582726,44.5359993 24.582726,44.1039993 L24.582726,44.1039993 L24.582726,41.1679993 L23.694726,41.1679993 L23.694726,44.1759993 C23.694726,44.4586659 23.6680593,44.6973326 23.614726,44.8919993 C23.5613927,45.0866659 23.486726,45.2426659 23.390726,45.3599993 C23.294726,45.4773326 23.1800593,45.5613326 23.046726,45.6119993 C22.9133927,45.6626659 22.766726,45.6879993 22.606726,45.6879993 C22.446726,45.6879993 22.302726,45.6626659 22.174726,45.6119993 C22.046726,45.5613326 21.9360593,45.4773326 21.842726,45.3599993 C21.7493927,45.2426659 21.6773927,45.0866659 21.626726,44.8919993 C21.5760593,44.6973326 21.550726,44.4586659 21.550726,44.1759993 L21.550726,44.1759993 L21.550726,41.1679993 L20.622726,41.1679993 L20.622726,44.1039993 C20.622726,44.5359993 20.6693927,44.9026659 20.762726,45.2039993 C20.8560593,45.5053326 20.9893927,45.7519993 21.162726,45.9439993 C21.3360593,46.1359993 21.5440593,46.2759993 21.786726,46.3639993 C22.0293927,46.4519993 22.302726,46.4959993 22.606726,46.4959993 Z M27.67109,46.4959993 C27.9644233,46.4959993 28.22709,46.4546659 28.45909,46.3719993 C28.69109,46.2893326 28.8884233,46.1773326 29.05109,46.0359993 C29.2137567,45.8946659 29.3377567,45.7306659 29.42309,45.5439993 C29.5084233,45.3573326 29.55109,45.1573326 29.55109,44.9439993 C29.55109,44.7519993 29.5244233,44.5826659 29.47109,44.4359993 C29.4177567,44.2893326 29.3444233,44.1599993 29.25109,44.0479993 C29.1577567,43.9359993 29.04709,43.8373326 28.91909,43.7519993 C28.79109,43.6666659 28.6497567,43.5919993 28.49509,43.5279993 L28.49509,43.5279993 L27.78309,43.2319993 C27.6764233,43.1893326 27.5724233,43.1453326 27.47109,43.0999993 C27.3697567,43.0546659 27.2804233,43.0039993 27.20309,42.9479993 C27.1257567,42.8919993 27.0644233,42.8279993 27.01909,42.7559993 C26.9737567,42.6839993 26.95109,42.5973326 26.95109,42.4959993 C26.95109,42.3039993 27.0257567,42.1533326 27.17509,42.0439993 C27.3244233,41.9346659 27.5244233,41.8799993 27.77509,41.8799993 C27.99909,41.8799993 28.2017567,41.9199993 28.38309,41.9999993 C28.5644233,42.0799993 28.7404233,42.1893326 28.91109,42.3279993 L28.91109,42.3279993 L29.38309,41.7359993 C29.1804233,41.5333326 28.9377567,41.3719993 28.65509,41.2519993 C28.3724233,41.1319993 28.07909,41.0719993 27.77509,41.0719993 C27.51909,41.0719993 27.28309,41.1093326 27.06709,41.1839993 C26.85109,41.2586659 26.6657567,41.3626659 26.51109,41.4959993 C26.3564233,41.6293326 26.23509,41.7853326 26.14709,41.9639993 C26.05909,42.1426659 26.01509,42.3359993 26.01509,42.5439993 C26.01509,42.7359993 26.0457567,42.9066659 26.10709,43.0559993 C26.1684233,43.2053326 26.2497567,43.3359993 26.35109,43.4479993 C26.4524233,43.5599993 26.5657567,43.6559993 26.69109,43.7359993 C26.8164233,43.8159993 26.94309,43.8826659 27.07109,43.9359993 L27.07109,43.9359993 L27.79109,44.2479993 C27.9084233,44.2959993 28.0164233,44.3439993 28.11509,44.3919993 C28.2137567,44.4399993 28.29909,44.4919993 28.37109,44.5479993 C28.44309,44.6039993 28.49909,44.6693326 28.53909,44.7439993 C28.57909,44.8186659 28.59909,44.9093326 28.59909,45.0159993 C28.59909,45.2186659 28.5217567,45.3813326 28.36709,45.5039993 C28.2124233,45.6266659 27.9857567,45.6879993 27.68709,45.6879993 C27.44709,45.6879993 27.20709,45.6333326 26.96709,45.5239993 C26.72709,45.4146659 26.5137567,45.2719993 26.32709,45.0959993 L26.32709,45.0959993 L25.78309,45.7279993 C26.0337567,45.9733326 26.32309,46.1626659 26.65109,46.2959993 C26.97909,46.4293326 27.31909,46.4959993 27.67109,46.4959993 Z M32.663454,46.3999993 L32.663454,41.9519993 L34.175454,41.9519993 L34.175454,41.1679993 L30.223454,41.1679993 L30.223454,41.9519993 L31.735454,41.9519993 L31.735454,46.3999993 L32.663454,46.3999993 Z M37.207818,46.4959993 C37.5491513,46.4959993 37.8611513,46.4333326 38.143818,46.3079993 C38.4264847,46.1826659 38.6704847,46.0013326 38.875818,45.7639993 C39.0811513,45.5266659 39.239818,45.2399993 39.351818,44.9039993 C39.463818,44.5679993 39.519818,44.1866659 39.519818,43.7599993 C39.519818,43.3386659 39.463818,42.9613326 39.351818,42.6279993 C39.239818,42.2946659 39.0811513,42.0133326 38.875818,41.7839993 C38.6704847,41.5546659 38.4264847,41.3786659 38.143818,41.2559993 C37.8611513,41.1333326 37.5491513,41.0719993 37.207818,41.0719993 C36.8664847,41.0719993 36.5544847,41.1333326 36.271818,41.2559993 C35.9891513,41.3786659 35.7464847,41.5546659 35.543818,41.7839993 C35.3411513,42.0133326 35.183818,42.2946659 35.071818,42.6279993 C34.959818,42.9613326 34.903818,43.3386659 34.903818,43.7599993 C34.903818,44.1866659 34.959818,44.5679993 35.071818,44.9039993 C35.183818,45.2399993 35.3411513,45.5266659 35.543818,45.7639993 C35.7464847,46.0013326 35.9891513,46.1826659 36.271818,46.3079993 C36.5544847,46.4333326 36.8664847,46.4959993 37.207818,46.4959993 Z M37.207818,45.6879993 C36.999818,45.6879993 36.8131513,45.6426659 36.647818,45.5519993 C36.4824847,45.4613326 36.3411513,45.3319993 36.223818,45.1639993 C36.1064847,44.9959993 36.015818,44.7933326 35.951818,44.5559993 C35.887818,44.3186659 35.855818,44.0533326 35.855818,43.7599993 C35.855818,43.1733326 35.9771513,42.7133326 36.219818,42.3799993 C36.4624847,42.0466659 36.791818,41.8799993 37.207818,41.8799993 C37.623818,41.8799993 37.9531513,42.0466659 38.195818,42.3799993 C38.4384847,42.7133326 38.559818,43.1733326 38.559818,43.7599993 C38.559818,44.0533326 38.527818,44.3186659 38.463818,44.5559993 C38.399818,44.7933326 38.3091513,44.9959993 38.191818,45.1639993 C38.0744847,45.3319993 37.9331513,45.4613326 37.767818,45.5519993 C37.6024847,45.6426659 37.415818,45.6879993 37.207818,45.6879993 Z M41.744182,46.3999993 L41.744182,44.0079993 C41.744182,43.8853326 41.740182,43.7519993 41.732182,43.6079993 C41.724182,43.4639993 41.7135153,43.3186659 41.700182,43.1719993 C41.6868487,43.0253326 41.6735153,42.8813326 41.660182,42.7399993 C41.6468487,42.5986659 41.6348487,42.4666659 41.624182,42.3439993 L41.624182,42.3439993 L41.656182,42.3439993 L42.072182,43.5599993 L42.936182,45.9119993 L43.488182,45.9119993 L44.344182,43.5599993 L44.768182,42.3439993 L44.800182,42.3439993 C44.7895153,42.4666659 44.776182,42.5986659 44.760182,42.7399993 C44.744182,42.8813326 44.7308487,43.0253326 44.720182,43.1719993 C44.7095153,43.3186659 44.700182,43.4639993 44.692182,43.6079993 C44.684182,43.7519993 44.680182,43.8853326 44.680182,44.0079993 L44.680182,44.0079993 L44.680182,46.3999993 L45.536182,46.3999993 L45.536182,41.1679993 L44.480182,41.1679993 L43.576182,43.7279993 C43.5175153,43.8933326 43.4628487,44.0626659 43.412182,44.2359993 C43.3615153,44.4093326 43.3068487,44.5813326 43.248182,44.7519993 L43.248182,44.7519993 L43.216182,44.7519993 C43.1575153,44.5813326 43.1015153,44.4093326 43.048182,44.2359993 C42.9948487,44.0626659 42.9388487,43.8933326 42.880182,43.7279993 L42.880182,43.7279993 L41.952182,41.1679993 L40.904182,41.1679993 L40.904182,46.3999993 L41.744182,46.3999993 Z M50.432546,46.3999993 L50.432546,45.6159993 L48.128546,45.6159993 L48.128546,44.0719993 L50.008546,44.0719993 L50.008546,43.2879993 L48.128546,43.2879993 L48.128546,41.9519993 L50.352546,41.9519993 L50.352546,41.1679993 L47.200546,41.1679993 L47.200546,46.3999993 L50.432546,46.3999993 Z M52.76891,46.3999993 L52.76891,44.3519993 L53.56891,44.3519993 L54.69691,46.3999993 L55.73691,46.3999993 L54.48891,44.2159993 C54.8035767,44.1093326 55.0555767,43.9333326 55.24491,43.6879993 C55.4342433,43.4426659 55.52891,43.1199993 55.52891,42.7199993 C55.52891,42.4266659 55.4795767,42.1813326 55.38091,41.9839993 C55.2822433,41.7866659 55.1475767,41.6279993 54.97691,41.5079993 C54.8062433,41.3879993 54.6035767,41.3013326 54.36891,41.2479993 C54.1342433,41.1946659 53.88091,41.1679993 53.60891,41.1679993 L53.60891,41.1679993 L51.84091,41.1679993 L51.84091,46.3999993 L52.76891,46.3999993 Z M53.51291,43.6159993 L52.76891,43.6159993 L52.76891,41.9119993 L53.51291,41.9119993 C53.8702433,41.9119993 54.1435767,41.9706659 54.33291,42.0879993 C54.5222433,42.2053326 54.61691,42.4159993 54.61691,42.7199993 C54.61691,43.0186659 54.5222433,43.2426659 54.33291,43.3919993 C54.1435767,43.5413326 53.8702433,43.6159993 53.51291,43.6159993 L53.51291,43.6159993 Z M58.329274,46.4959993 C58.6226073,46.4959993 58.885274,46.4546659 59.117274,46.3719993 C59.349274,46.2893326 59.5466073,46.1773326 59.709274,46.0359993 C59.8719407,45.8946659 59.9959407,45.7306659 60.081274,45.5439993 C60.1666073,45.3573326 60.209274,45.1573326 60.209274,44.9439993 C60.209274,44.7519993 60.1826073,44.5826659 60.129274,44.4359993 C60.0759407,44.2893326 60.0026073,44.1599993 59.909274,44.0479993 C59.8159407,43.9359993 59.705274,43.8373326 59.577274,43.7519993 C59.449274,43.6666659 59.3079407,43.5919993 59.153274,43.5279993 L59.153274,43.5279993 L58.441274,43.2319993 C58.3346073,43.1893326 58.2306073,43.1453326 58.129274,43.0999993 C58.0279407,43.0546659 57.9386073,43.0039993 57.861274,42.9479993 C57.7839407,42.8919993 57.7226073,42.8279993 57.677274,42.7559993 C57.6319407,42.6839993 57.609274,42.5973326 57.609274,42.4959993 C57.609274,42.3039993 57.6839407,42.1533326 57.833274,42.0439993 C57.9826073,41.9346659 58.1826073,41.8799993 58.433274,41.8799993 C58.657274,41.8799993 58.8599407,41.9199993 59.041274,41.9999993 C59.2226073,42.0799993 59.3986073,42.1893326 59.569274,42.3279993 L59.569274,42.3279993 L60.041274,41.7359993 C59.8386073,41.5333326 59.5959407,41.3719993 59.313274,41.2519993 C59.0306073,41.1319993 58.737274,41.0719993 58.433274,41.0719993 C58.177274,41.0719993 57.941274,41.1093326 57.725274,41.1839993 C57.509274,41.2586659 57.3239407,41.3626659 57.169274,41.4959993 C57.0146073,41.6293326 56.893274,41.7853326 56.805274,41.9639993 C56.717274,42.1426659 56.673274,42.3359993 56.673274,42.5439993 C56.673274,42.7359993 56.7039407,42.9066659 56.765274,43.0559993 C56.8266073,43.2053326 56.9079407,43.3359993 57.009274,43.4479993 C57.1106073,43.5599993 57.2239407,43.6559993 57.349274,43.7359993 C57.4746073,43.8159993 57.601274,43.8826659 57.729274,43.9359993 L57.729274,43.9359993 L58.449274,44.2479993 C58.5666073,44.2959993 58.6746073,44.3439993 58.773274,44.3919993 C58.8719407,44.4399993 58.957274,44.4919993 59.029274,44.5479993 C59.101274,44.6039993 59.157274,44.6693326 59.197274,44.7439993 C59.237274,44.8186659 59.257274,44.9093326 59.257274,45.0159993 C59.257274,45.2186659 59.1799407,45.3813326 59.025274,45.5039993 C58.8706073,45.6266659 58.6439407,45.6879993 58.345274,45.6879993 C58.105274,45.6879993 57.865274,45.6333326 57.625274,45.5239993 C57.385274,45.4146659 57.1719407,45.2719993 56.985274,45.0959993 L56.985274,45.0959993 L56.441274,45.7279993 C56.6919407,45.9733326 56.981274,46.1626659 57.309274,46.2959993 C57.637274,46.4293326 57.977274,46.4959993 58.329274,46.4959993 Z" id="500K+CUSTOMERS" fill="#273583" fill-rule="nonzero"></path>
            </g>
        </g>
    </g>
</svg>