<?xml version="1.0" encoding="UTF-8"?>
<svg width="76px" height="75px" viewBox="0 0 76 75" version="1.1" xmlns="http://www.w3.org/2000/svg" xmlns:xlink="http://www.w3.org/1999/xlink">
    <title>DF01C8EB-E4DD-4ED1-97B8-EE8FEBE9FD7D</title>
    <g id="icons" stroke="none" stroke-width="1" fill="none" fill-rule="evenodd">
        <g id="phenqicons" transform="translate(-300.000000, -342.000000)">
            <rect id="Rectangle-Copy-31" stroke="#979797" x="285" y="324.5" width="109" height="109"></rect>
            <g id="60dayrefund" transform="translate(300.500000, 342.000000)">
                <circle id="Oval" fill="#FFFFFF" cx="37.5" cy="37.5" r="37.5"></circle>
                <path d="M23.763,36.132 C24.0636667,36.132 24.3478333,36.077 24.6155,35.967 C24.8831667,35.857 25.116,35.703 25.314,35.505 C25.512,35.307 25.6696667,35.0668333 25.787,34.7845 C25.9043333,34.5021667 25.963,34.185 25.963,33.833 C25.963,33.4663333 25.9135,33.1473333 25.8145,32.876 C25.7155,32.6046667 25.5761667,32.3791667 25.3965,32.1995 C25.2168333,32.0198333 25.0005,31.886 24.7475,31.798 C24.4945,31.71 24.2176667,31.666 23.917,31.666 C23.6603333,31.666 23.3945,31.7393333 23.1195,31.886 C22.8445,32.0326667 22.6043333,32.2343333 22.399,32.491 C22.4136667,32.007 22.4668333,31.6 22.5585,31.27 C22.6501667,30.94 22.7693333,30.6741667 22.916,30.4725 C23.0626667,30.2708333 23.2331667,30.126 23.4275,30.038 C23.6218333,29.95 23.829,29.906 24.049,29.906 C24.2616667,29.906 24.4688333,29.9555 24.6705,30.0545 C24.8721667,30.1535 25.0353333,30.28 25.16,30.434 L25.16,30.434 L25.842,29.664 C25.6293333,29.444 25.3708333,29.257 25.0665,29.103 C24.7621667,28.949 24.3973333,28.872 23.972,28.872 C23.6126667,28.872 23.268,28.9453333 22.938,29.092 C22.608,29.2386667 22.3165,29.466 22.0635,29.774 C21.8105,30.082 21.607,30.478 21.453,30.962 C21.299,31.446 21.222,32.029 21.222,32.711 C21.222,33.2976667 21.2898333,33.8073333 21.4255,34.24 C21.5611667,34.6726667 21.7445,35.0283333 21.9755,35.307 C22.2065,35.5856667 22.476,35.7928333 22.784,35.9285 C23.092,36.0641667 23.4183333,36.132 23.763,36.132 Z M23.741,35.164 C23.3963333,35.164 23.1085,35.0246667 22.8775,34.746 C22.6465,34.4673333 22.498,34.0163333 22.432,33.393 C22.63,33.0996667 22.839,32.8925 23.059,32.7715 C23.279,32.6505 23.488,32.59 23.686,32.59 C24.038,32.59 24.3093333,32.6926667 24.5,32.898 C24.6906667,33.1033333 24.786,33.415 24.786,33.833 C24.786,34.2656667 24.6851667,34.5956667 24.4835,34.823 C24.2818333,35.0503333 24.0343333,35.164 23.741,35.164 Z M29.497,36.132 C30.2303333,36.132 30.8096667,35.8185 31.235,35.1915 C31.6603333,34.5645 31.873,33.657 31.873,32.469 C31.873,31.2883333 31.6603333,30.3936667 31.235,29.785 C30.8096667,29.1763333 30.2303333,28.872 29.497,28.872 C28.7636667,28.872 28.1843333,29.1745 27.759,29.7795 C27.3336667,30.3845 27.121,31.281 27.121,32.469 C27.121,33.657 27.3336667,34.5645 27.759,35.1915 C28.1843333,35.8185 28.7636667,36.132 29.497,36.132 Z M29.497,35.142 C29.3283333,35.142 29.1725,35.0961667 29.0295,35.0045 C28.8865,34.9128333 28.7636667,34.7606667 28.661,34.548 C28.5583333,34.3353333 28.4776667,34.0603333 28.419,33.723 C28.3603333,33.3856667 28.331,32.9676667 28.331,32.469 C28.331,31.9776667 28.3603333,31.5651667 28.419,31.2315 C28.4776667,30.8978333 28.5583333,30.6283333 28.661,30.423 C28.7636667,30.2176667 28.8865,30.0728333 29.0295,29.9885 C29.1725,29.9041667 29.3283333,29.862 29.497,29.862 C29.6656667,29.862 29.8215,29.9041667 29.9645,29.9885 C30.1075,30.0728333 30.2303333,30.2176667 30.333,30.423 C30.4356667,30.6283333 30.5163333,30.8978333 30.575,31.2315 C30.6336667,31.5651667 30.663,31.9776667 30.663,32.469 C30.663,32.9676667 30.6336667,33.3856667 30.575,33.723 C30.5163333,34.0603333 30.4356667,34.3353333 30.333,34.548 C30.2303333,34.7606667 30.1075,34.9128333 29.9645,35.0045 C29.8215,35.0961667 29.6656667,35.142 29.497,35.142 Z M38.028,36 C38.5633333,36 39.0418333,35.923 39.4635,35.769 C39.8851667,35.615 40.2445,35.3858333 40.5415,35.0815 C40.8385,34.7771667 41.0658333,34.3976667 41.2235,33.943 C41.3811667,33.4883333 41.46,32.964 41.46,32.37 C41.46,31.182 41.152,30.291 40.536,29.697 C39.92,29.103 39.062,28.806 37.962,28.806 L37.962,28.806 L36.037,28.806 L36.037,36 L38.028,36 Z M37.874,34.966 L37.313,34.966 L37.313,29.84 L37.874,29.84 C38.6,29.84 39.161,30.0416667 39.557,30.445 C39.953,30.8483333 40.151,31.49 40.151,32.37 C40.151,33.2573333 39.9548333,33.9118333 39.5625,34.3335 C39.1701667,34.7551667 38.6073333,34.966 37.874,34.966 L37.874,34.966 Z M43.465,36 L44.026,34.053 L46.446,34.053 L47.007,36 L48.349,36 L46.006,28.806 L44.51,28.806 L42.167,36 L43.465,36 Z M46.16,33.052 L44.323,33.052 L44.576,32.172 C44.6933333,31.7906667 44.8033333,31.4001667 44.906,31.0005 C45.0086667,30.6008333 45.1113333,30.1993333 45.214,29.796 L45.214,29.796 L45.258,29.796 C45.3606667,30.192 45.4651667,30.5916667 45.5715,30.995 C45.6778333,31.3983333 45.7896667,31.7906667 45.907,32.172 L45.907,32.172 L46.16,33.052 Z M51.839,36 L51.839,33.327 L54.006,28.806 L52.675,28.806 L51.894,30.643 C51.7913333,30.9143333 51.685,31.1765 51.575,31.4295 C51.465,31.6825 51.3513333,31.9483333 51.234,32.227 L51.234,32.227 L51.19,32.227 C51.0726667,31.9483333 50.9626667,31.6825 50.86,31.4295 C50.7573333,31.1765 50.6546667,30.9143333 50.552,30.643 L50.552,30.643 L49.771,28.806 L48.407,28.806 L50.563,33.327 L50.563,36 L51.839,36 Z M19.121,46 L19.121,43.184 L20.221,43.184 L21.772,46 L23.202,46 L21.486,42.997 C21.9186667,42.8503333 22.2651667,42.6083333 22.5255,42.271 C22.7858333,41.9336667 22.916,41.49 22.916,40.94 C22.916,40.5366667 22.8481667,40.1993333 22.7125,39.928 C22.5768333,39.6566667 22.3916667,39.4385 22.157,39.2735 C21.9223333,39.1085 21.6436667,38.9893333 21.321,38.916 C20.9983333,38.8426667 20.65,38.806 20.276,38.806 L20.276,38.806 L17.845,38.806 L17.845,46 L19.121,46 Z M20.144,42.172 L19.121,42.172 L19.121,39.829 L20.144,39.829 C20.6353333,39.829 21.0111667,39.9096667 21.2715,40.071 C21.5318333,40.2323333 21.662,40.522 21.662,40.94 C21.662,41.3506667 21.5318333,41.6586667 21.2715,41.864 C21.0111667,42.0693333 20.6353333,42.172 20.144,42.172 L20.144,42.172 Z M29.101,46 L29.101,44.922 L25.933,44.922 L25.933,42.799 L28.518,42.799 L28.518,41.721 L25.933,41.721 L25.933,39.884 L28.991,39.884 L28.991,38.806 L24.657,38.806 L24.657,46 L29.101,46 Z M32.151,46 L32.151,42.997 L34.769,42.997 L34.769,41.919 L32.151,41.919 L32.151,39.884 L35.22,39.884 L35.22,38.806 L30.875,38.806 L30.875,46 L32.151,46 Z M39.48,46.132 C39.898,46.132 40.2738333,46.0715 40.6075,45.9505 C40.9411667,45.8295 41.2271667,45.637 41.4655,45.373 C41.7038333,45.109 41.8853333,44.7698333 42.01,44.3555 C42.1346667,43.9411667 42.197,43.437 42.197,42.843 L42.197,42.843 L42.197,38.806 L40.976,38.806 L40.976,42.942 C40.976,43.3306667 40.9393333,43.6588333 40.866,43.9265 C40.7926667,44.1941667 40.69,44.4086667 40.558,44.57 C40.426,44.7313333 40.2683333,44.8468333 40.085,44.9165 C39.9016667,44.9861667 39.7,45.021 39.48,45.021 C39.26,45.021 39.062,44.9861667 38.886,44.9165 C38.71,44.8468333 38.5578333,44.7313333 38.4295,44.57 C38.3011667,44.4086667 38.2021667,44.1941667 38.1325,43.9265 C38.0628333,43.6588333 38.028,43.3306667 38.028,42.942 L38.028,42.942 L38.028,38.806 L36.752,38.806 L36.752,42.843 C36.752,43.437 36.8161667,43.9411667 36.9445,44.3555 C37.0728333,44.7698333 37.2561667,45.109 37.4945,45.373 C37.7328333,45.637 38.0188333,45.8295 38.3525,45.9505 C38.6861667,46.0715 39.062,46.132 39.48,46.132 Z M45.511,46 L45.511,42.854 C45.511,42.4506667 45.4908333,42.04 45.4505,41.622 C45.4101667,41.204 45.3753333,40.8043333 45.346,40.423 L45.346,40.423 L45.39,40.423 L46.127,41.952 L48.371,46 L49.68,46 L49.68,38.806 L48.459,38.806 L48.459,41.93 C48.459,42.3333333 48.4791667,42.7495 48.5195,43.1785 C48.5598333,43.6075 48.5946667,44.009 48.624,44.383 L48.624,44.383 L48.58,44.383 L47.843,42.854 L45.599,38.806 L44.29,38.806 L44.29,46 L45.511,46 Z M53.797,46 C54.3323333,46 54.8108333,45.923 55.2325,45.769 C55.6541667,45.615 56.0135,45.3858333 56.3105,45.0815 C56.6075,44.7771667 56.8348333,44.3976667 56.9925,43.943 C57.1501667,43.4883333 57.229,42.964 57.229,42.37 C57.229,41.182 56.921,40.291 56.305,39.697 C55.689,39.103 54.831,38.806 53.731,38.806 L53.731,38.806 L51.806,38.806 L51.806,46 L53.797,46 Z M53.643,44.966 L53.082,44.966 L53.082,39.84 L53.643,39.84 C54.369,39.84 54.93,40.0416667 55.326,40.445 C55.722,40.8483333 55.92,41.49 55.92,42.37 C55.92,43.2573333 55.7238333,43.9118333 55.3315,44.3335 C54.9391667,44.7551667 54.3763333,44.966 53.643,44.966 L53.643,44.966 Z" id="60DAYREFUND" fill="#273583" fill-rule="nonzero"></path>
                <g id="Group-10-Copy" transform="translate(36.500000, 58.000000) scale(-1, -1) translate(-36.500000, -58.000000) translate(23.000000, 52.000000)" stroke="#273583" stroke-linecap="round" stroke-linejoin="round" stroke-width="2">
                    <g id="Group-7">
                        <g id="Group-8">
                            <polyline id="Shape" transform="translate(21.947360, 6.917357) rotate(25.000000) translate(-21.947360, -6.917357) " points="18.5536028 10.1752676 25.049697 9.75473654 25.3411174 3.65944733"></polyline>
                            <path d="M0.67215117,8.57654123 C2.40053823,3.57936131 7.30655904,0.35421083 12.6326954,0.713844281 C17.9588317,1.07347773 22.3764521,4.92818275 23.4025528,10.1113523" id="Shape"></path>
                        </g>
                    </g>
                </g>
                <g id="Group-10-Copy-2" transform="translate(25.000000, 10.000000)" stroke="#273583" stroke-linecap="round" stroke-linejoin="round" stroke-width="2">
                    <g id="Group-7">
                        <g id="Group-8">
                            <polyline id="Shape" transform="translate(21.947360, 6.917357) rotate(25.000000) translate(-21.947360, -6.917357) " points="18.5536028 10.1752676 25.049697 9.75473654 25.3411174 3.65944733"></polyline>
                            <path d="M0.67215117,8.57654123 C2.40053823,3.57936131 7.30655904,0.35421083 12.6326954,0.713844281 C17.9588317,1.07347773 22.3764521,4.92818275 23.4025528,10.1113523" id="Shape"></path>
                        </g>
                    </g>
                </g>
            </g>
        </g>
    </g>
</svg>