<?xml version="1.0" encoding="UTF-8"?>
<svg width="19px" height="19px" viewBox="0 0 19 19" version="1.1"
  xmlns="http://www.w3.org/2000/svg"
  xmlns:xlink="http://www.w3.org/1999/xlink">
  <title>BBBF94AB-1628-4B19-BA19-50B729417F5B</title>
  <g id="icons" stroke="none" stroke-width="1" fill="none" fill-rule="evenodd">
    <g id="phenqicons" transform="translate(-463.000000, -76.000000)">
      <rect id="Rectangle-Copy-4" stroke="#979797" x="432.5" y="44.5" width="80" height="80"></rect>
      <path d="M472.352,85.352 C473.192,85.352 473.966667,85.142 474.676,84.722 C475.385333,84.302 475.95,83.7373333 476.37,83.028 C476.79,82.3186667 477,81.544 477,80.704 C477,79.864 476.79,79.08 476.37,78.352 C475.95,77.624 475.385333,77.05 474.676,76.63 C473.966667,76.21 473.192,76 472.352,76 C471.512,76 470.737333,76.21 470.028,76.63 C469.318667,77.05 468.754,77.624 468.334,78.352 C467.914,79.08 467.704,79.864 467.704,80.704 C467.704,81.544 467.914,82.3186667 468.334,83.028 C468.754,83.7373333 469.318667,84.302 470.028,84.722 C470.737333,85.142 471.512,85.352 472.352,85.352 Z M472.352,83.112 C471.661333,83.112 471.078,82.8833333 470.602,82.426 C470.126,81.9686667 469.888,81.3946667 469.888,80.704 C469.888,80.0133333 470.126,79.43 470.602,78.954 C471.078,78.478 471.661333,78.24 472.352,78.24 C473.042667,78.24 473.626,78.478 474.102,78.954 C474.578,79.43 474.816,80.0133333 474.816,80.704 C474.816,81.3946667 474.578,81.9686667 474.102,82.426 C473.626,82.8833333 473.042667,83.112 472.352,83.112 Z M481.704,94.704 L481.704,91.204 C481.704,90.252 481.125333,89.384 479.968,88.6 C478.997333,87.9466667 477.728,87.424 476.16,87.032 C474.76,86.6773333 473.490667,86.5 472.352,86.5 C471.213333,86.5 469.944,86.6773333 468.544,87.032 C466.976,87.424 465.706667,87.9466667 464.736,88.6 C463.578667,89.384 463,90.252 463,91.204 L463,91.204 L463,94.704 L481.704,94.704 Z M479.464,92.464 L465.24,92.464 L465.24,91.204 C465.24,90.9426667 465.604,90.616 466.332,90.224 C467.06,89.832 467.937333,89.496 468.964,89.216 C470.158667,88.8986667 471.288,88.74 472.352,88.74 C473.416,88.74 474.545333,88.8986667 475.74,89.216 C476.766667,89.496 477.644,89.832 478.372,90.224 C479.1,90.616 479.464,90.9426667 479.464,91.204 L479.464,91.204 L479.464,92.464 Z" id="account" fill="currentColor" fill-rule="nonzero"></path>
    </g>
  </g>
</svg>