<?xml version="1.0" encoding="UTF-8" standalone="no"?>
<svg
   xmlns:dc="http://purl.org/dc/elements/1.1/"
   xmlns:cc="http://creativecommons.org/ns#"
   xmlns:rdf="http://www.w3.org/1999/02/22-rdf-syntax-ns#"
   xmlns:svg="http://www.w3.org/2000/svg"
   xmlns="http://www.w3.org/2000/svg"
   xmlns:sodipodi="http://sodipodi.sourceforge.net/DTD/sodipodi-0.dtd"
   xmlns:inkscape="http://www.inkscape.org/namespaces/inkscape"
   viewBox="0 0 100 100"
   version="1.1"
   id="svg14"
   sodipodi:docname="icon-chickenb.svg"
   inkscape:version="0.92.3 (2405546, 2018-03-11)"
   width="100"
   height="100">
  <metadata
     id="metadata20">
    <rdf:RDF>
      <cc:Work
         rdf:about="">
        <dc:format>image/svg+xml</dc:format>
        <dc:type
           rdf:resource="http://purl.org/dc/dcmitype/StillImage" />
        <dc:title></dc:title>
      </cc:Work>
    </rdf:RDF>
  </metadata>
  <defs
     id="defs18" />
  <sodipodi:namedview
     pagecolor="#ffffff"
     bordercolor="#666666"
     borderopacity="1"
     objecttolerance="10"
     gridtolerance="10"
     guidetolerance="10"
     inkscape:pageopacity="0"
     inkscape:pageshadow="2"
     inkscape:window-width="1920"
     inkscape:window-height="1017"
     id="namedview16"
     showgrid="false"
     inkscape:zoom="7.552"
     inkscape:cx="62.554363"
     inkscape:cy="48.603976"
     inkscape:window-x="-8"
     inkscape:window-y="-8"
     inkscape:window-maximized="1"
     inkscape:current-layer="svg14" />
  <path
     d="m 71.6737,22.360488 -3.323049,4.165835 c -7.287578,4.46974 -13.001255,4.684341 -19.283307,6.380439 -27.09645,-2.26162 -47.5611064,16.724935 -48.2563601,34.048094 0,19.932545 21.8354451,19.933718 44.9562121,19.933718 13.465168,-0.0023 26.551418,-0.03918 41.349181,-0.0046 C 101.47193,84.605908 103.54239,68.067154 90.531035,64.23642 89.54711,54.781892 84.212849,46.663541 74.403594,40.757506 75.203828,34.735907 76.829655,32.508091 79.913765,28.947059 89.359673,31.141856 90.764754,18.132903 81.823773,18.105352 76.94551,7.2767335 68.404231,16.581075 71.6737,22.360488 Z m 7.198033,-0.547353 c 9.77044,-3.679858 6.048997,9.632187 0.267951,2.745925 l -3.72154,4.658224 -3.013876,-2.406978 3.71467,-4.653644 c -6.512075,-3.650729 3.674008,-11.150413 2.752795,-0.343527 z m -8.883604,7.832412 3.32076,2.649737 C 71.230034,37.1065 71.453616,37.872602 71.2837,50.558069 71.113785,63.243535 56.671446,73.709315 43.516962,63.43526 30.362478,53.161205 39.612617,43.60476 47.868798,37.720705 53.999672,33.351326 64.93729,32.635101 69.988129,29.645547 Z m 4.844633,15.591802 c 5.827229,4.21346 12.199341,10.856182 12.531229,21.735875 12.902249,1.747535 8.371846,16.304184 -0.247339,16.567154 -13.017317,0.0089 -27.573324,-0.103128 -41.349182,0.0023 -25.893899,0 -41.6125506,-1.116856 -41.6125506,-16.587766 0,-16.317506 18.4253096,-29.824643 40.1155396,-30.860024 -14.128394,11.014092 -15.529583,21.005881 -3.373962,30.912525 12.155621,9.906644 37.302609,4.009733 33.936265,-21.770064 z"
     id="path2"
     inkscape:connector-curvature="0"
     sodipodi:nodetypes="ccccccccccccccccccczzsccccscczc"
     style="stroke-width:1.17257166" />
</svg>
