<?xml version="1.0" encoding="UTF-8" standalone="no"?>
<svg
   xmlns:dc="http://purl.org/dc/elements/1.1/"
   xmlns:cc="http://creativecommons.org/ns#"
   xmlns:rdf="http://www.w3.org/1999/02/22-rdf-syntax-ns#"
   xmlns:svg="http://www.w3.org/2000/svg"
   xmlns="http://www.w3.org/2000/svg"
   xmlns:sodipodi="http://sodipodi.sourceforge.net/DTD/sodipodi-0.dtd"
   xmlns:inkscape="http://www.inkscape.org/namespaces/inkscape"
   width="100"
   height="100"
   viewBox="0 0 100 100"
   version="1.1"
   id="svg938"
   sodipodi:docname="60dayrefund-1.svg"
   inkscape:version="0.92.3 (2405546, 2018-03-11)">
  <metadata
     id="metadata944">
    <rdf:RDF>
      <cc:Work
         rdf:about="">
        <dc:format>image/svg+xml</dc:format>
        <dc:type
           rdf:resource="http://purl.org/dc/dcmitype/StillImage" />
        <dc:title>DF01C8EB-E4DD-4ED1-97B8-EE8FEBE9FD7D</dc:title>
      </cc:Work>
    </rdf:RDF>
  </metadata>
  <defs
     id="defs942" />
  <sodipodi:namedview
     pagecolor="#ffffff"
     bordercolor="#666666"
     borderopacity="1"
     objecttolerance="10"
     gridtolerance="10"
     guidetolerance="10"
     inkscape:pageopacity="0"
     inkscape:pageshadow="2"
     inkscape:window-width="1920"
     inkscape:window-height="1017"
     id="namedview940"
     showgrid="false"
     fit-margin-top="0"
     fit-margin-left="0"
     fit-margin-right="0"
     fit-margin-bottom="0"
     inkscape:zoom="5.6533333"
     inkscape:cx="149.1047"
     inkscape:cy="47.798023"
     inkscape:window-x="-8"
     inkscape:window-y="-8"
     inkscape:window-maximized="1"
     inkscape:current-layer="layer1" />
  <title
     id="title915">DF01C8EB-E4DD-4ED1-97B8-EE8FEBE9FD7D</title>
  <circle
     style="fill:#ffffff;fill-rule:evenodd;stroke:#979797;stroke-width:1.31763196;stroke-opacity:1"
     r="49.411198"
     cy="50"
     cx="50"
     id="Oval" />
  <path
     style="fill:#273583;fill-rule:nonzero;stroke:none;stroke-width:1.31763196;stroke-opacity:1"
     inkscape:connector-curvature="0"
     id="60DAYREFUND"
     d="m 31.899692,48.197478 c 0.396168,0 0.770595,-0.07247 1.123281,-0.217409 0.352687,-0.14494 0.659475,-0.347855 0.920366,-0.608746 0.260891,-0.260891 0.468638,-0.577343 0.62324,-0.949354 0.154602,-0.372011 0.231903,-0.78992 0.231903,-1.253727 0,-0.483132 -0.06522,-0.903456 -0.195668,-1.260974 -0.130446,-0.357517 -0.314035,-0.654643 -0.55077,-0.891378 -0.236735,-0.236734 -0.521782,-0.413077 -0.855143,-0.529029 -0.333361,-0.115951 -0.698125,-0.173927 -1.094294,-0.173927 -0.338192,0 -0.688462,0.09662 -1.050811,0.289879 -0.362349,0.193253 -0.678801,0.458975 -0.949354,0.797167 0.01933,-0.637734 0.08938,-1.17401 0.210162,-1.608828 0.120788,-0.434819 0.277801,-0.785089 0.471054,-1.050812 0.193253,-0.265723 0.417909,-0.456559 0.673969,-0.572511 0.256059,-0.115951 0.529029,-0.173927 0.818908,-0.173927 0.280217,0 0.553185,0.06522 0.818908,0.195668 0.265723,0.130446 0.480716,0.297126 0.644981,0.500041 v 0 l 0.898625,-1.014576 c -0.280217,-0.289879 -0.620825,-0.536276 -1.021824,-0.739192 -0.400999,-0.202915 -0.881716,-0.304373 -1.442148,-0.304373 -0.473469,0 -0.927613,0.09662 -1.362431,0.289879 -0.434819,0.193253 -0.818909,0.492795 -1.152269,0.898625 -0.333361,0.405831 -0.601499,0.927613 -0.804415,1.565347 -0.202915,0.637734 -0.304373,1.405913 -0.304373,2.304538 0,0.773011 0.08938,1.444564 0.268138,2.014659 0.17876,0.570096 0.420325,1.038733 0.724698,1.405914 0.304373,0.36718 0.659475,0.640149 1.065305,0.818908 0.405831,0.178759 0.835818,0.268138 1.289962,0.268138 z m -0.02899,-1.275468 c -0.454144,0 -0.833402,-0.183589 -1.137775,-0.55077 -0.304373,-0.36718 -0.500041,-0.961432 -0.587005,-1.782756 0.260891,-0.386505 0.536276,-0.659475 0.826155,-0.818908 0.289879,-0.159434 0.565264,-0.23915 0.826155,-0.23915 0.463807,0 0.821324,0.135277 1.072553,0.40583 0.251229,0.270554 0.376842,0.681216 0.376842,1.231986 0,0.570096 -0.13286,1.004915 -0.398583,1.304456 -0.265723,0.299541 -0.591837,0.449312 -0.978342,0.449312 z m 7.584289,1.275468 c 0.966263,0 1.729612,-0.413078 2.290045,-1.239233 0.560432,-0.826155 0.840649,-2.021906 0.840649,-3.587253 0,-1.555684 -0.280217,-2.734525 -0.840649,-3.536524 -0.560433,-0.801999 -1.323782,-1.202998 -2.290045,-1.202998 -0.966263,0 -1.729612,0.398584 -2.290044,1.195751 -0.560432,0.797168 -0.840649,1.978425 -0.840649,3.543771 0,1.565347 0.280217,2.761098 0.840649,3.587253 0.560432,0.826155 1.323781,1.239233 2.290044,1.239233 z m 0,-1.304456 c -0.222241,0 -0.427571,-0.06039 -0.615993,-0.181174 -0.188421,-0.120787 -0.35027,-0.321282 -0.485547,-0.601499 -0.135277,-0.280217 -0.241565,-0.642566 -0.318867,-1.087046 -0.0773,-0.444481 -0.115951,-0.995251 -0.115951,-1.652311 0,-0.647396 0.03865,-1.190919 0.115951,-1.630569 0.07731,-0.43965 0.18359,-0.794752 0.318867,-1.065306 0.135277,-0.270553 0.297126,-0.461391 0.485547,-0.572511 0.188422,-0.111116 0.393752,-0.16668 0.615993,-0.16668 0.222241,0 0.427572,0.05556 0.615993,0.16668 0.188422,0.111116 0.35027,0.301958 0.485548,0.572511 0.135277,0.270554 0.241565,0.625656 0.318867,1.065306 0.07731,0.43965 0.115951,0.983173 0.115951,1.630569 0,0.65706 -0.03865,1.20783 -0.115951,1.652311 -0.07731,0.44448 -0.18359,0.806829 -0.318867,1.087046 -0.135278,0.280217 -0.297126,0.480716 -0.485548,0.601499 -0.188421,0.120787 -0.393752,0.181174 -0.615993,0.181174 z m 11.240718,1.130529 c 0.705372,0 1.335859,-0.101458 1.891461,-0.304373 0.555602,-0.202916 1.02907,-0.504873 1.420407,-0.905872 0.391337,-0.400999 0.690878,-0.901041 0.898625,-1.500124 0.207747,-0.599084 0.31162,-1.289962 0.31162,-2.072635 0,-1.565347 -0.405831,-2.739357 -1.217492,-3.52203 -0.811661,-0.782674 -1.942189,-1.17401 -3.391584,-1.17401 v 0 h -2.536442 v 9.479044 z m -0.202915,-1.362432 h -0.739192 v -6.754181 h 0.739192 c 0.956601,0 1.695792,0.265723 2.217574,0.797167 0.521783,0.531445 0.782674,1.376926 0.782674,2.536442 0,1.169178 -0.258476,2.031568 -0.775427,2.58717 -0.51695,0.555602 -1.258558,0.833402 -2.224821,0.833402 z m 7.36688,1.362432 0.739191,-2.56543 h 3.18867 l 0.739191,2.56543 h 1.768262 l -3.087209,-9.479044 h -1.971178 l -3.087211,9.479044 z m 3.551018,-3.884379 h -2.42049 l 0.333361,-1.159516 c 0.154602,-0.502457 0.299541,-1.016992 0.434818,-1.543606 0.135278,-0.526614 0.270554,-1.055643 0.405831,-1.587088 v 0 h 0.05798 c 0.135277,0.521782 0.27297,1.048396 0.413078,1.579841 0.140107,0.531444 0.287463,1.048396 0.442065,1.550853 v 0 z m 7.482832,3.884379 V 44.50152 l 2.855308,-5.957013 h -1.753768 l -1.029071,2.420489 c -0.135277,0.357517 -0.275385,0.702957 -0.420324,1.036318 -0.14494,0.333361 -0.294711,0.683631 -0.449313,1.050811 v 0 h -0.05798 c -0.154601,-0.36718 -0.299541,-0.71745 -0.434818,-1.050811 -0.135277,-0.333361 -0.270553,-0.678801 -0.405831,-1.036318 v 0 l -1.02907,-2.420489 h -1.79725 l 2.840814,5.957013 v 3.522031 z M 25.783245,61.19987 v -3.710452 h 1.449395 l 2.043647,3.710452 h 1.884214 l -2.261057,-3.956849 c 0.570096,-0.193253 1.026655,-0.51212 1.369679,-0.956601 0.343023,-0.44448 0.514535,-1.02907 0.514535,-1.753768 0,-0.531444 -0.08938,-0.975926 -0.268138,-1.333443 -0.178759,-0.357517 -0.42274,-0.644981 -0.731945,-0.86239 -0.309205,-0.21741 -0.676384,-0.374428 -1.10154,-0.471054 -0.425156,-0.09662 -0.884131,-0.144939 -1.376925,-0.144939 v 0 h -3.203164 v 9.479044 z m 1.347937,-5.043895 h -1.347937 v -3.087212 h 1.347937 c 0.647396,0 1.142607,0.106294 1.48563,0.318867 0.343023,0.212578 0.514535,0.594252 0.514535,1.145022 0,0.541108 -0.171512,0.946939 -0.514535,1.217492 -0.343023,0.270553 -0.838234,0.405831 -1.48563,0.405831 z M 38.933211,61.19987 V 59.779462 H 34.758953 V 56.98213 h 3.406079 v -1.420407 h -3.406079 v -2.42049 h 4.029319 v -1.420407 h -5.710617 v 9.479044 z m 4.018777,0 v -3.956849 h 3.449561 v -1.420407 h -3.449561 v -2.681381 h 4.043813 V 51.720826 H 41.27069 v 9.479044 z m 9.656925,0.173927 c 0.55077,0 1.045979,-0.07972 1.48563,-0.23915 0.43965,-0.159434 0.816493,-0.413078 1.130528,-0.760933 0.314035,-0.347854 0.553185,-0.794752 0.71745,-1.34069 0.164266,-0.545938 0.246398,-1.210245 0.246398,-1.992918 v 0 -5.31928 H 54.58009 v 5.449725 c 0,0.51212 -0.04832,0.944522 -0.144939,1.297209 -0.09662,0.352686 -0.231904,0.635319 -0.405831,0.847896 -0.173927,0.212578 -0.381675,0.364764 -0.62324,0.456559 -0.241565,0.0918 -0.507288,0.137693 -0.797167,0.137693 -0.289879,0 -0.55077,-0.04589 -0.782674,-0.137693 -0.231903,-0.0918 -0.432403,-0.243981 -0.601499,-0.456559 -0.169095,-0.212577 -0.299541,-0.49521 -0.391336,-0.847896 -0.0918,-0.352687 -0.137693,-0.785089 -0.137693,-1.297209 v 0 -5.449725 h -1.681298 v 5.31928 c 0,0.782673 0.08455,1.44698 0.253644,1.992918 0.169096,0.545938 0.410662,0.992836 0.724698,1.34069 0.314035,0.347855 0.690877,0.601499 1.130528,0.760933 0.43965,0.159433 0.93486,0.23915 1.48563,0.23915 z M 60.555551,61.19987 V 57.0546 c 0,-0.531445 -0.02658,-1.072553 -0.07972,-1.623323 -0.05314,-0.55077 -0.09905,-1.077384 -0.137692,-1.57984 v 0 h 0.05797 l 0.971095,2.014659 2.956766,5.333774 h 1.72478 v -9.479044 h -1.608828 v 4.116282 c 0,0.531444 0.02658,1.079799 0.07972,1.645063 0.05314,0.565264 0.09905,1.094294 0.137693,1.587088 v 0 h -0.05798 L 63.62826,57.0546 60.671494,51.720826 h -1.72478 v 9.479044 z m 10.917898,0 c 0.705372,0 1.335859,-0.101458 1.89146,-0.304373 0.555602,-0.202916 1.029071,-0.504873 1.420408,-0.905872 0.391336,-0.400999 0.690877,-0.90104 0.898625,-1.500124 0.207747,-0.599084 0.31162,-1.289962 0.31162,-2.072635 0,-1.565347 -0.405831,-2.739357 -1.217492,-3.52203 -0.811662,-0.782674 -1.94219,-1.17401 -3.391585,-1.17401 v 0 h -2.536441 v 9.479044 z m -0.202916,-1.362432 h -0.739191 v -6.754181 h 0.739191 c 0.956601,0 1.695793,0.265723 2.217575,0.797167 0.521782,0.531445 0.782673,1.376926 0.782673,2.536442 0,1.169178 -0.258476,2.031568 -0.775426,2.58717 -0.516951,0.555602 -1.258559,0.833402 -2.224822,0.833402 z" />
  <g
     style="fill:none;fill-rule:evenodd;stroke:#979797;stroke-width:2;stroke-linecap:round;stroke-linejoin:round;stroke-opacity:1"
     id="Group-8"
     transform="matrix(-1.3176319,0,0,-1.3176319,66.4704,84.917244)">
    <polyline
       style="stroke:#979797;stroke-opacity:1"
       points="18.5536028 10.1752676 25.049697 9.75473654 25.3411174 3.65944733"
       transform="rotate(25,21.94736,6.917357)"
       id="Shape" />
    <path
       style="fill:none;stroke:#979797;stroke-opacity:1"
       inkscape:connector-curvature="0"
       id="path921"
       d="M 0.67215117,8.5765412 C 2.4005382,3.5793613 7.306559,0.35421083 12.632695,0.71384428 17.958832,1.0734777 22.376452,4.9281828 23.402553,10.111352" />
  </g>
  <g
     style="fill:none;fill-rule:evenodd;stroke:#979797;stroke-width:2;stroke-linecap:round;stroke-linejoin:round;stroke-opacity:1"
     transform="matrix(1.3176319,0,0,1.3176319,33.529603,13.765121)"
     id="Group-10-Copy-2">
    <g
       id="g932"
       style="fill:none;stroke:#979797;stroke-opacity:1">
      <g
         id="g930"
         style="fill:none;stroke:#979797;stroke-opacity:1">
        <polyline
           points="18.5536028 10.1752676 25.049697 9.75473654 25.3411174 3.65944733"
           transform="rotate(25,21.94736,6.917357)"
           id="polyline926"
           style="fill:none;stroke:#979797;stroke-opacity:1" />
        <path
           inkscape:connector-curvature="0"
           id="path928"
           d="M 0.67215117,8.5765412 C 2.4005382,3.5793613 7.306559,0.35421083 12.632695,0.71384428 17.958832,1.0734777 22.376452,4.9281828 23.402553,10.111352"
           style="fill:none;stroke:#979797;stroke-opacity:1" />
      </g>
    </g>
  </g>
  <g
     inkscape:groupmode="layer"
     id="layer1"
     inkscape:label="60">
    <text
       xml:space="preserve"
       style="font-style:normal;font-weight:normal;font-size:40px;line-height:1.25;font-family:sans-serif;letter-spacing:0px;word-spacing:0px;fill:#000000;fill-opacity:1;stroke:none"
       x="48.21751"
       y="34.021435"
       id="text1021"><tspan
         sodipodi:role="line"
         id="tspan1019"
         x="48.21751"
         y="34.021435">60 DAY </tspan><tspan
         sodipodi:role="line"
         x="48.21751"
         y="84.021439"
         id="tspan1023">REFUND</tspan></text>
  </g>
</svg>
