<?xml version="1.0" encoding="UTF-8" standalone="no"?>
<svg
   xmlns:dc="http://purl.org/dc/elements/1.1/"
   xmlns:cc="http://creativecommons.org/ns#"
   xmlns:rdf="http://www.w3.org/1999/02/22-rdf-syntax-ns#"
   xmlns:svg="http://www.w3.org/2000/svg"
   xmlns="http://www.w3.org/2000/svg"
   xmlns:sodipodi="http://sodipodi.sourceforge.net/DTD/sodipodi-0.dtd"
   xmlns:inkscape="http://www.inkscape.org/namespaces/inkscape"
   viewBox="0 0 100 125"
   version="1.1"
   id="svg14"
   sodipodi:docname="icon-chickenb.svg"
   inkscape:version="0.92.3 (2405546, 2018-03-11)">
  <metadata
     id="metadata20">
    <rdf:RDF>
      <cc:Work
         rdf:about="">
        <dc:format>image/svg+xml</dc:format>
        <dc:type
           rdf:resource="http://purl.org/dc/dcmitype/StillImage" />
        <dc:title></dc:title>
      </cc:Work>
    </rdf:RDF>
  </metadata>
  <defs
     id="defs18" />
  <sodipodi:namedview
     pagecolor="#ffffff"
     bordercolor="#666666"
     borderopacity="1"
     objecttolerance="10"
     gridtolerance="10"
     guidetolerance="10"
     inkscape:pageopacity="0"
     inkscape:pageshadow="2"
     inkscape:window-width="1920"
     inkscape:window-height="1017"
     id="namedview16"
     showgrid="false"
     inkscape:zoom="15.104"
     inkscape:cx="56.849482"
     inkscape:cy="69.191708"
     inkscape:window-x="-8"
     inkscape:window-y="-8"
     inkscape:window-maximized="1"
     inkscape:current-layer="svg14" />
  <path
     d="m 68.693359,29.714844 -2.833984,3.552734 C 59.644336,37.07949 54.771562,37.262507 49.414062,38.708984 26.305495,36.780215 8.8526963,52.97245 8.2597656,67.746097 c 0,16.999 18.6218434,17 38.3398434,17 11.48345,-0.002 22.643749,-0.03341 35.263672,-0.0039 C 94.10608,82.799379 95.87182,68.694694 84.775391,65.427743 83.936274,57.364672 79.387076,50.441128 71.021484,45.404306 c 0.682461,-5.135379 2.069009,-7.035319 4.699219,-10.072261 8.05572,1.871781 8.237665,-8.883815 1.628906,-9.246093 -4.160312,-9.234932 -11.44454,-1.299944 -8.65625,3.628892 z m 6.138672,-0.466797 c 7.935243,-3.072072 4.43046,8.082168 0.228516,2.341797 l -3.173828,3.972656 -2.570313,-2.052734 3.167969,-3.96875 c -5.553669,-3.113438 2.934668,-8.052799 2.347656,-0.292969 z m -7.576172,6.679687 2.832032,2.259766 c -1.772902,4.103132 -0.494255,12.802331 -3.475505,20.243977 -0.791303,2.732608 -4.352627,15.09283 -23.625744,12.535757 -15.860007,-6.053083 -1.172367,-24.326452 5.868722,-29.344529 5.228571,-3.726322 14.093007,-3.1454 18.400495,-5.694971 z m -22.96289,5.59375 c -35.5502715,37.06544 26.738914,46.166468 26.642812,7.138714 4.969615,3.59335 10.855629,9.823074 11.138672,19.101563 11.003383,1.490344 7.139731,13.904638 -0.210938,14.128906 -11.101511,0.0076 -23.515257,-0.08795 -35.263672,0.002 -22.083,0 -35.488281,-0.952484 -35.488281,-14.146484 0,-13.916 14.683641,-25.34161 33.181641,-26.22461 z"
     id="path2"
     inkscape:connector-curvature="0"
     sodipodi:nodetypes="cccccccccccccccccccccscccccsccc" />
</svg>
