<?xml version="1.0" encoding="UTF-8" standalone="no"?>
<!-- Created with Inkscape (http://www.inkscape.org/) -->

<svg
   xmlns:dc="http://purl.org/dc/elements/1.1/"
   xmlns:cc="http://creativecommons.org/ns#"
   xmlns:rdf="http://www.w3.org/1999/02/22-rdf-syntax-ns#"
   xmlns:svg="http://www.w3.org/2000/svg"
   xmlns="http://www.w3.org/2000/svg"
   xmlns:sodipodi="http://sodipodi.sourceforge.net/DTD/sodipodi-0.dtd"
   xmlns:inkscape="http://www.inkscape.org/namespaces/inkscape"
   width="100mm"
   height="100mm"
   viewBox="0 0 100 100"
   version="1.1"
   id="svg830"
   inkscape:version="0.92.3 (2405546, 2018-03-11)"
   sodipodi:docname="icon-padlock.svg">
  <defs
     id="defs824" />
  <sodipodi:namedview
     id="base"
     pagecolor="#ffffff"
     bordercolor="#666666"
     borderopacity="1.0"
     inkscape:pageopacity="0.0"
     inkscape:pageshadow="2"
     inkscape:zoom="1.4"
     inkscape:cx="103.37118"
     inkscape:cy="217.98107"
     inkscape:document-units="mm"
     inkscape:current-layer="layer1"
     showgrid="true"
     inkscape:window-width="1920"
     inkscape:window-height="1017"
     inkscape:window-x="-8"
     inkscape:window-y="-8"
     inkscape:window-maximized="1">
    <inkscape:grid
       type="xygrid"
       id="grid1375" />
  </sodipodi:namedview>
  <metadata
     id="metadata827">
    <rdf:RDF>
      <cc:Work
         rdf:about="">
        <dc:format>image/svg+xml</dc:format>
        <dc:type
           rdf:resource="http://purl.org/dc/dcmitype/StillImage" />
        <dc:title />
      </cc:Work>
    </rdf:RDF>
  </metadata>
  <g
     inkscape:label="Layer 1"
     inkscape:groupmode="layer"
     id="layer1"
     transform="translate(0,-197)">
    <g
       id="g1390"
       transform="translate(0,-2.3398925)">
      <path
         id="rect1377"
         transform="matrix(0.26458333,0,0,0.26458333,0,197)"
         d="m 89.009766,113.38672 c -17.903887,0 -32.316407,14.41252 -32.316407,32.3164 v 199.93165 c 0,17.90388 14.41252,32.31835 32.316407,32.31835 H 288.94141 c 17.90388,0 32.31836,-14.41447 32.31836,-32.31835 V 145.70312 c 0,-17.90388 -14.41448,-32.3164 -32.31836,-32.3164 z m 99.966794,94.48633 a 37.795276,37.795276 0 0 1 37.79492,37.79687 37.795276,37.795276 0 0 1 -37.79492,37.79492 37.795276,37.795276 0 0 1 -37.79492,-37.79492 37.795276,37.795276 0 0 1 37.79492,-37.79687 z"
         style="fill:#010111;fill-opacity:1;stroke:none;stroke-width:39.68503952;stroke-miterlimit:4;stroke-dasharray:none;stroke-opacity:1"
         inkscape:connector-curvature="0" />
      <path
         sodipodi:nodetypes="cc"
         inkscape:connector-curvature="0"
         id="path1386"
         d="m 35.71875,227 c 0,-30.42708 30.427083,-30.42708 30.427083,0"
         style="fill:none;stroke:#000000;stroke-width:5;stroke-linecap:butt;stroke-linejoin:miter;stroke-miterlimit:4;stroke-dasharray:none;stroke-opacity:1" />
    </g>
  </g>
</svg>
