<?xml version="1.0" encoding="UTF-8" standalone="no"?>
<svg
   xmlns:dc="http://purl.org/dc/elements/1.1/"
   xmlns:cc="http://creativecommons.org/ns#"
   xmlns:rdf="http://www.w3.org/1999/02/22-rdf-syntax-ns#"
   xmlns:svg="http://www.w3.org/2000/svg"
   xmlns="http://www.w3.org/2000/svg"
   xmlns:sodipodi="http://sodipodi.sourceforge.net/DTD/sodipodi-0.dtd"
   xmlns:inkscape="http://www.inkscape.org/namespaces/inkscape"
   viewBox="0 0 100 100"
   version="1.1"
   id="svg55"
   sodipodi:docname="icon-chicken-3.svg"
   inkscape:version="0.92.3 (2405546, 2018-03-11)"
   width="100"
   height="100">
  <metadata
     id="metadata61">
    <rdf:RDF>
      <cc:Work
         rdf:about="">
        <dc:format>image/svg+xml</dc:format>
        <dc:type
           rdf:resource="http://purl.org/dc/dcmitype/StillImage" />
        <dc:title></dc:title>
      </cc:Work>
    </rdf:RDF>
  </metadata>
  <defs
     id="defs59" />
  <sodipodi:namedview
     pagecolor="#ffffff"
     bordercolor="#666666"
     borderopacity="1"
     objecttolerance="10"
     gridtolerance="10"
     guidetolerance="10"
     inkscape:pageopacity="0"
     inkscape:pageshadow="2"
     inkscape:window-width="1920"
     inkscape:window-height="1017"
     id="namedview57"
     showgrid="false"
     inkscape:zoom="19.18805"
     inkscape:cx="68.711096"
     inkscape:cy="68.949024"
     inkscape:window-x="-8"
     inkscape:window-y="-8"
     inkscape:window-maximized="1"
     inkscape:current-layer="layer1" />
  <g
     id="g66"
     transform="matrix(1.1778324,0,0,1.1778324,-0.38545905,-5.6352535)">
    <path
       inkscape:connector-curvature="0"
       style="fill:#000000"
       id="path43"
       d="m 65.116123,33.140113 -7.033,-5.607 3.388,-4.245 c -1.123,-1.724 -1.126,-3.949 0.125,-5.515 1.552,-1.938 4.752,-2.173 6.838,-0.521 0.797,0.644 1.382,1.479 1.693,2.407 0.98,0.1 1.931,0.49 2.719,1.119 2.159,1.732 2.607,4.774 1.003,6.785 -1.209,1.524 -3.459,2.062 -5.351,1.343 z m -3.022,-6.058 2.57,2.053 3.173,-3.972 1.098,0.771 c 0.891,0.632 2.114,0.565 2.682,-0.15 0.63,-0.785 0.379,-2.03 -0.554,-2.78 -0.529,-0.418 -1.215,-0.59 -1.836,-0.487 l -1.618,0.304 -0.069,-1.646 c -0.025,-0.643 -0.352,-1.259 -0.889,-1.693 -0.892,-0.707 -2.226,-0.683 -2.827,0.072 -0.585,0.733 -0.39,1.9 0.445,2.66 l 0.992,0.9 z" />
    <path
       inkscape:connector-curvature="0"
       style="fill:#000000"
       id="path45"
       d="m 46.209123,65.960113 c -0.002,0 -0.002,0 -0.002,0 -3.758,-0.003 -7.271,-1.22 -10.156,-3.526 -3.515,-2.808 -5.663,-6.888 -6.047,-11.492 -0.381,-4.573 1.025,-9.119 3.964,-12.796 2.914,-3.641 7,-6.011 11.509,-6.671 l 2.615,-0.161 c 6.934,-0.744 10.838,-4.633 10.877,-4.672 l 0.903,-0.916 6.924,5.526 -0.892,1.114 c -2.71,3.387 -2.334,9.501 -2.044,11.974 0.125,0.594 0.242,1.317 0.298,2.039 l 0.078,0.961 -0.033,0.017 c 0.105,4.215 -1.301,8.351 -4.011,11.746 -3.485,4.359 -8.582,6.857 -13.983,6.857 z m 13.824,-36.46 c -1.732,1.387 -5.716,4.014 -11.704,4.654 l -2.56,0.156 c -3.671,0.543 -7.114,2.543 -9.574,5.617 -2.481,3.104 -3.671,6.931 -3.351,10.777 0.32,3.813 2.089,7.188 4.986,9.501 2.376,1.896 5.272,2.899 8.376,2.902 h 0.002 c 4.532,0 8.816,-2.108 11.755,-5.785 2.459,-3.084 3.648,-6.88 3.348,-10.696 l -0.042,-0.496 c -0.05,-0.423 -0.131,-0.886 -0.226,-1.342 -0.387,-3.298 -0.587,-8.964 1.822,-13.027 z" />
    <path
       inkscape:connector-curvature="0"
       style="fill:#000000"
       id="path47"
       d="m 39.377123,78.319113 c -19.718,0 -38.3410004,0 -38.3410004,-16.999 0,-16.063 17.2000004,-29.133 38.3410004,-29.133 1.072,0 2.125,0.048 3.178,0.114 l 6.782,0.426 -6.381,2.337 c -2.657,0.973 -4.997,2.655 -6.76,4.863 -2.481,3.104 -3.671,6.931 -3.351,10.777 0.32,3.813 2.089,7.188 4.986,9.501 2.376,1.896 5.272,2.902 8.376,2.902 4.534,-0.003 8.818,-2.108 11.757,-5.785 2.459,-3.084 3.648,-6.88 3.348,-10.696 l -0.042,-0.496 c -0.05,-0.423 -0.131,-0.886 -0.226,-1.342 -0.158,-1.318 -0.304,-3.185 -0.197,-5.262 l 0.117,-2.368 2.036,1.215 c 8.459,5.044 13.709,12.518 14.553,20.628 4.095,1.263 6.967,5.07 6.967,9.435 0,5.448 -4.432,9.88 -9.88,9.88 h -24.323 c -0.301,0 -0.593,-0.036 -0.883,-0.075 -3.242,0.063 -6.587,0.078 -10.057,0.078 z m -2.307,-43.224 c -18.498,0.883 -33.1820004,12.309 -33.1820004,26.225 0,13.194 13.4060004,14.146 35.4890004,14.146 3.442,0 6.766,-0.014 9.924,-0.101 l 0.513,0.051 c 0.167,0.021 0.332,0.047 0.504,0.047 h 24.322 c 3.874,0 7.027,-3.153 7.027,-7.027 0,-3.367 -2.406,-6.27 -5.718,-6.896 l -1.098,-0.206 -0.062,-1.114 c -0.387,-6.854 -4.396,-13.306 -11.1,-18.005 0.036,0.83 0.103,1.56 0.17,2.125 0.125,0.594 0.242,1.317 0.298,2.039 l 0.078,0.964 -0.033,0.017 c 0.105,4.212 -1.301,8.348 -4.011,11.743 -3.485,4.359 -8.582,6.854 -13.985,6.857 -3.755,0 -7.268,-1.22 -10.156,-3.526 -3.515,-2.808 -5.663,-6.888 -6.047,-11.492 -0.381,-4.573 1.025,-9.119 3.964,-12.796 0.914,-1.142 1.956,-2.165 3.103,-3.051 z" />
  </g>
  <g
     inkscape:groupmode="layer"
     id="layer1"
     inkscape:label="Stroke">
    <path
       style="fill:none;stroke:#f80000;stroke-width:1px;stroke-linecap:butt;stroke-linejoin:miter;stroke-opacity:1"
       d="M 48.140594,33.926498 C 22.180127,32.112875 1.3605079,51.087203 2.531187,67.268536 c 1.1706792,16.181333 19.788326,16.996995 29.013624,17.843492 14.762076,0.04027 40.291375,-0.558848 56.603774,0 C 105.48259,78.716572 94.425167,65.678021 89.32783,64.622642 87.253208,47.932531 74.146722,41.939674 73.034267,41.713707 c -0.278602,-6.375629 2.584837,-10.404745 2.584837,-10.404745 0,0 2.027712,-2.530244 4.274764,-4.864387 8.500945,2.56474 8.028075,-7.977701 0.762319,-7.204993 0.603725,-6.523501 -12.291044,-5.933936 -6.658545,2.635418 -1.507361,1.950651 -1.779541,2.563446 -3.685142,5.011792 -6.910292,5.398155 -10.864284,5.117621 -22.171906,7.039706 z"
       id="path69"
       inkscape:connector-curvature="0"
       sodipodi:nodetypes="czcccccccccc" />
  </g>
</svg>
