<?xml version="1.0" encoding="UTF-8" standalone="no"?>
<!-- Created with Inkscape (http://www.inkscape.org/) -->

<svg
   xmlns:dc="http://purl.org/dc/elements/1.1/"
   xmlns:cc="http://creativecommons.org/ns#"
   xmlns:rdf="http://www.w3.org/1999/02/22-rdf-syntax-ns#"
   xmlns:svg="http://www.w3.org/2000/svg"
   xmlns="http://www.w3.org/2000/svg"
   xmlns:sodipodi="http://sodipodi.sourceforge.net/DTD/sodipodi-0.dtd"
   xmlns:inkscape="http://www.inkscape.org/namespaces/inkscape"
   width="100mm"
   height="100mm"
   viewBox="0 0 100 100"
   version="1.1"
   id="svg8"
   inkscape:version="0.92.3 (2405546, 2018-03-11)"
   sodipodi:docname="icon-vegan.svg">
  <defs
     id="defs2" />
  <sodipodi:namedview
     id="base"
     pagecolor="#ffffff"
     bordercolor="#666666"
     borderopacity="1.0"
     inkscape:pageopacity="0.0"
     inkscape:pageshadow="2"
     inkscape:zoom="1.979899"
     inkscape:cx="175.45817"
     inkscape:cy="167.97378"
     inkscape:document-units="mm"
     inkscape:current-layer="layer1"
     showgrid="false"
     fit-margin-top="0"
     fit-margin-left="0"
     fit-margin-right="0"
     fit-margin-bottom="0"
     inkscape:window-width="1920"
     inkscape:window-height="1017"
     inkscape:window-x="-8"
     inkscape:window-y="-8"
     inkscape:window-maximized="1" />
  <metadata
     id="metadata5">
    <rdf:RDF>
      <cc:Work
         rdf:about="">
        <dc:format>image/svg+xml</dc:format>
        <dc:type
           rdf:resource="http://purl.org/dc/dcmitype/StillImage" />
        <dc:title></dc:title>
      </cc:Work>
    </rdf:RDF>
  </metadata>
  <g
     inkscape:label="Layer 1"
     inkscape:groupmode="layer"
     id="layer1"
     transform="translate(-92.093897,-54.484064)">
    <circle
       style="fill:#ffffff;fill-rule:evenodd;stroke:#000000;stroke-width:1.31256115;stroke-opacity:1"
       id="Oval"
       cx="141.97122"
       cy="104.60674"
       r="49.221046" />
    <path
       style="fill:#000000;fill-opacity:1;fill-rule:nonzero;stroke:none;stroke-width:1.31256115;stroke-opacity:1"
       inkscape:connector-curvature="0"
       d="m 123.86707,131.51425 2.93095,-9.44256 h -1.71815 c -0.73366,2.56829 -1.47131,5.39772 -2.13688,7.82551 v 0 h -0.0577 c -0.71855,-2.64086 -1.49029,-5.40991 -2.16576,-7.82551 h -1.77589 l 2.94538,9.44256 z m 10.67023,0 v -1.41494 h -4.15818 v -2.78657 h 3.39297 v -1.41493 h -3.39297 v -2.41118 h 4.01382 v -1.41494 h -5.68865 v 9.44256 z m 6.65644,0.17313 c 1.31636,0.0496 2.11333,-0.48864 3.01759,-1.12621 v 0 -4.1582 h -3.29193 v 1.37163 h 1.79038 v 2.03574 c -3.02072,1.35565 -4.33907,-0.78635 -4.36204,-3.09062 -0.0298,-3.16086 2.99036,-4.42762 4.82429,-2.54021 v 0 l 0.89519,-1.08285 c -1.30501,-1.32669 -3.1886,-1.51192 -4.61301,-0.86493 -1.61759,0.73475 -2.65976,2.02368 -2.70694,4.59133 -0.065,3.53248 2.51099,4.99658 4.44677,4.86551 3.9e-4,-5e-5 -3e-4,-0.001 -3e-4,-0.001 z m 6.26661,-0.17313 0.73634,-2.55554 h 3.17639 l 0.73639,2.55554 h 1.76145 l -3.07533,-9.44256 h -1.96361 l -3.07534,9.44256 z m 3.53734,-3.86943 h -2.41118 c 0.42614,-1.43081 0.84151,-2.98554 1.16928,-4.27368 v 0 h 0.0575 c 0.38794,1.53177 0.78491,2.88588 1.18416,4.27368 z m 6.41102,3.86943 c 0.0699,-2.41713 -0.0149,-5.09446 -0.21629,-7.32015 v 0 h 0.0575 c 1.15658,2.516 2.57132,4.90034 3.91273,7.32015 h 1.71815 v -9.44256 h -1.60261 c -0.07,2.41689 0.0198,5.1016 0.2163,7.32015 v 0 h -0.0575 c -1.15658,-2.516 -2.57131,-4.90034 -3.91273,-7.32015 h -1.71815 v 9.44256 z"
       id="VEGAN"
       sodipodi:nodetypes="cccccccccccccccccccccccccccccccscccasscccccccccccccccccccccccccccccccc" />
    <path
       style="fill:none;fill-opacity:1;fill-rule:evenodd;stroke:#000000;stroke-width:2.62512231;stroke-linecap:round;stroke-linejoin:round;stroke-opacity:1"
       inkscape:connector-curvature="0"
       d="m 136.39703,111.86854 c -7.97586,-10e-4 -14.44101,-6.29523 -14.44101,-14.05913 0,-20.388643 26.12265,-10.012506 38.25687,-19.815813 0.2654,-0.193473 -0.29964,-0.137912 0,0 0.30311,0.123526 -0.0546,-0.315511 0,0 3.70467,21.116601 -11.68933,33.874743 -23.81586,33.874743 z"
       id="Shape"
       sodipodi:nodetypes="csccccc" />
    <path
       style="fill:none;fill-opacity:1;fill-rule:evenodd;stroke:#000000;stroke-width:2.62512231;stroke-linecap:round;stroke-linejoin:round;stroke-opacity:1"
       inkscape:connector-curvature="0"
       d="m 142.95698,94.050119 c -5.89217,1.60092 -11.41355,4.317984 -16.25744,8.000181 l -7.36864,6.21571"
       id="path821" />
  </g>
</svg>
