<?xml version="1.0" encoding="UTF-8"?>
<svg width="43px" height="43px" viewBox="0 0 43 43" version="1.1" xmlns="http://www.w3.org/2000/svg" xmlns:xlink="http://www.w3.org/1999/xlink">
    <title>7CE84D19-E60E-4390-A26C-81F05486F0FB</title>
    <g id="icons" stroke="none" stroke-width="1" fill="none" fill-rule="evenodd">
        <g id="phenqicons" transform="translate(-1206.000000, -64.000000)">
            <rect id="Rectangle-Copy-12" stroke="#979797" x="1187.5" y="44.5" width="80" height="80"></rect>
            <g id="facebook-copy" transform="translate(1206.000000, 64.000000)" fill="#009FE3">
                <circle id="Oval" cx="21.2500006" cy="21.2500006" r="21.2500006"></circle>
            </g>
            <path d="M1221.05357,79.8169688 C1222.33706,79.8169688 1223.14063,78.9687535 1223.12947,77.9084844 C1223.11831,76.8258938 1222.33706,76 1221.0759,76 C1219.82589,76 1219,76.8258938 1219,77.9084844 C1219,78.9687535 1219.79241,79.8169688 1221.03125,79.8169688 L1221.05357,79.8169688 Z M1228.59823,92.3839481 L1228.59823,86.2120657 C1228.59823,85.8772439 1228.63171,85.5535828 1228.72099,85.3080468 C1228.98885,84.6495639 1229.59153,83.9687595 1230.60716,83.9687595 C1231.93528,83.9687595 1232.471,84.9843857 1232.471,86.4687625 L1232.471,92.3839481 L1236.14288,92.3839481 L1236.14288,86.0446548 C1236.14288,82.6517936 1234.33484,81.0669703 1231.91296,81.0669703 C1230.00913,81.0669703 1229.1303,82.0817246 1228.63798,82.8342486 L1228.598,82.8956834 L1228.59823,81.3236671 L1224.92635,81.3236671 L1224.92696,81.3418849 C1224.93219,81.5144134 1224.96785,83.0674129 1224.92635,92.3839481 L1228.59823,92.3839481 Z M1222.89509,92.3839481 L1222.89509,81.3236671 L1219.21205,81.3236671 L1219.21205,92.3839481 L1222.89509,92.3839481 Z" id="" fill="#FFFFFF" fill-rule="nonzero"></path>
        </g>
    </g>
</svg>