<?xml version="1.0" encoding="UTF-8"?>
<svg width="43px" height="43px" viewBox="0 0 43 43" version="1.1" xmlns="http://www.w3.org/2000/svg" xmlns:xlink="http://www.w3.org/1999/xlink">
    <title>0C29ABB8-2D57-4DA7-99B6-A110FEB86AD5</title>
    <g id="icons" stroke="none" stroke-width="1" fill="none" fill-rule="evenodd">
        <g id="phenqicons" transform="translate(-835.000000, -64.000000)">
            <rect id="Rectangle-Copy-8" stroke="#979797" x="819.5" y="44.5" width="80" height="80"></rect>
            <g id="linkedin" transform="translate(835.000000, 64.000000)">
                <circle id="Oval" stroke="#FFFFFF" cx="21.2500006" cy="21.2500006" r="20.7500006"></circle>
                <path d="M15.0535739,15.2312854 C16.3370575,15.2312854 17.1406299,14.3830701 17.1294692,13.322801 C17.1183085,12.2402104 16.3370575,11.4143166 15.0758953,11.4143166 C13.8258938,11.4143166 13,12.2402104 13,13.322801 C13,14.3830701 13.7924117,15.2312854 15.0312524,15.2312854 L15.0535739,15.2312854 Z M22.5982257,27.7982647 L22.5982257,21.6263823 C22.5982257,21.2915605 22.6317079,20.9678994 22.7209937,20.7223634 C22.9888512,20.0638805 23.5915305,19.3830761 24.6071567,19.3830761 C25.9352833,19.3830761 26.4709982,20.3987023 26.4709982,21.8830791 L26.4709982,27.7982647 L30.1428776,27.7982647 L30.1428776,21.4589714 C30.1428776,18.0661102 28.3348397,16.4812869 25.9129618,16.4812869 C24.0091277,16.4812869 23.1302979,17.4960412 22.6379802,18.2485652 L22.598,18.31 L22.5982257,16.7379836 L18.9263464,16.7379836 L18.9269638,16.7562015 C18.9321913,16.92873 18.9678454,18.4817294 18.9263464,27.7982647 L22.5982257,27.7982647 Z M16.8950939,27.7982647 L16.8950939,16.7379836 L13.2120538,16.7379836 L13.2120538,27.7982647 L16.8950939,27.7982647 Z" id="" fill="#FFFFFF" fill-rule="nonzero"></path>
            </g>
        </g>
    </g>
</svg>