<?xml version="1.0" encoding="UTF-8"?>
<svg width="12px" height="15px" viewBox="0 0 12 15" version="1.1" xmlns="http://www.w3.org/2000/svg" xmlns:xlink="http://www.w3.org/1999/xlink">
    <title>E3634522-87B3-40CF-B5F5-87E29D1B23C7</title>
    <g id="icons" stroke="none" stroke-width="1" fill="none" fill-rule="evenodd">
        <g id="phenqicons" transform="translate(-366.000000, -164.000000)">
            <rect id="Rectangle-Copy-16" stroke="#979797" x="333.5" y="134.5" width="80" height="80"></rect>
            <path d="M375.928,178.875 C376.313333,178.875 376.647667,178.739 376.931,178.467 C377.214333,178.195 377.356,177.866333 377.356,177.481 L377.356,177.481 L377.356,170.375 C377.356,169.989667 377.214333,169.661 376.931,169.389 C376.647667,169.117 376.313333,168.981 375.928,168.981 L375.928,168.981 L375.231,168.981 L375.231,167.553 C375.231,166.907 375.072333,166.312 374.755,165.768 C374.437667,165.224 374.007,164.793333 373.463,164.476 C372.919,164.158667 372.324,164 371.678,164 C371.032,164 370.437,164.158667 369.893,164.476 C369.349,164.793333 368.918333,165.224 368.601,165.768 C368.283667,166.312 368.125,166.907 368.125,167.553 L368.125,167.553 L368.125,168.981 L367.428,168.981 C367.042667,168.981 366.708333,169.117 366.425,169.389 C366.141667,169.661 366,169.989667 366,170.375 L366,170.375 L366,177.481 C366,177.866333 366.141667,178.195 366.425,178.467 C366.708333,178.739 367.042667,178.875 367.428,178.875 L367.428,178.875 L375.928,178.875 Z M373.871,168.981 L369.485,168.981 L369.485,167.553 C369.485,167.167667 369.584167,166.805 369.7825,166.465 C369.980833,166.125 370.25,165.855833 370.59,165.6575 C370.93,165.459167 371.292667,165.36 371.678,165.36 C372.063333,165.36 372.426,165.459167 372.766,165.6575 C373.106,165.855833 373.375167,166.125 373.5735,166.465 C373.771833,166.805 373.871,167.167667 373.871,167.553 L373.871,167.553 L373.871,168.981 Z M371.678,175.356 C371.292667,175.356 370.958333,175.214333 370.675,174.931 C370.391667,174.647667 370.25,174.313333 370.25,173.928 C370.25,173.542667 370.391667,173.208333 370.675,172.925 C370.958333,172.641667 371.292667,172.5 371.678,172.5 C372.063333,172.5 372.397667,172.641667 372.681,172.925 C372.964333,173.208333 373.106,173.542667 373.106,173.928 C373.106,174.313333 372.964333,174.647667 372.681,174.931 C372.397667,175.214333 372.063333,175.356 371.678,175.356 Z" id="lock" fill="#6D6D6D" fill-rule="nonzero"></path>
        </g>
    </g>
</svg>