<?xml version="1.0" encoding="UTF-8"?>
<svg width="14px" height="14px" viewBox="0 0 14 14" version="1.1"
  xmlns="http://www.w3.org/2000/svg"
  xmlns:xlink="http://www.w3.org/1999/xlink">
  <title>2EB8F20C-5F88-4C16-AD92-DF0A81B1DC5F</title>
  <g id="icons" stroke="none" stroke-width="1" fill="none" fill-rule="evenodd">
    <g id="phenqicons" transform="translate(-367.000000, -78.000000)">
      <rect id="Rectangle-Copy-3" stroke="#979797" x="333.5" y="44.5" width="80" height="80"></rect>
      <path d="M378.988,91.5 C379.396,91.5 379.75,91.35 380.05,91.05 C380.35,90.75 380.5,90.396 380.5,89.988 L380.5,89.988 L380.5,79.512 C380.5,79.104 380.35,78.75 380.05,78.45 C379.75,78.15 379.396,78 378.988,78 L378.988,78 L368.512,78 C368.092,78 367.735,78.15 367.441,78.45 C367.147,78.75 367,79.104 367,79.512 L367,79.512 L367,82.5 L368.512,82.5 L368.512,79.512 L378.988,79.512 L378.988,89.988 L368.512,89.988 L368.512,87 L367,87 L367,89.988 C367,90.396 367.147,90.75 367.441,91.05 C367.735,91.35 368.092,91.5 368.512,91.5 L368.512,91.5 L378.988,91.5 Z M373.372,88.512 L377.134,84.75 L373.372,80.988 L372.31,82.05 L374.236,84.012 L367,84.012 L367,85.488 L374.236,85.488 L372.31,87.45 L373.372,88.512 Z" id="logout" fill="currentColor" fill-rule="nonzero"></path>
    </g>
  </g>
</svg>