<?xml version="1.0" encoding="UTF-8"?>
<svg width="76px" height="75px" viewBox="0 0 76 75" version="1.1"
  xmlns="http://www.w3.org/2000/svg"
  xmlns:xlink="http://www.w3.org/1999/xlink">
  <title>74FF5ABB-A216-4940-9ADE-7F37F3685417</title>
  <g id="icons" stroke="none" stroke-width="1" fill="none" fill-rule="evenodd">
    <g id="phenqicons" transform="translate(-177.000000, -342.000000)">
      <rect id="Rectangle-Copy-30" stroke="#979797" x="159" y="324.5" width="109" height="109"></rect>
      <g id="naturalingredients" transform="translate(177.500000, 342.000000)">
        <circle id="Oval" fill="#FFFFFF" cx="37.5" cy="37.5" r="37.5"></circle>
        <g id="Group-12" transform="translate(14.578125, 9.000000)" stroke="currentColor" stroke-linecap="round" stroke-width="2">
          <path d="M34.421875,24 C34.421875,17.372583 29.049292,12 22.421875,12 C15.794458,12 10.421875,17.372583 10.421875,24" id="Path"></path>
          <line x1="40.25" y1="19.328125" x2="40.25" y2="12.140625" id="Line-3-Copy" transform="translate(40.250000, 15.734375) rotate(67.500000) translate(-40.250000, -15.734375) "></line>
          <line x1="3.953125" y1="19.328125" x2="3.953125" y2="12.140625" id="Line-3-Copy-2" transform="translate(3.953125, 15.734375) scale(-1, 1) rotate(67.500000) translate(-3.953125, -15.734375) "></line>
          <line x1="14.421875" y1="9.1875" x2="14.421875" y2="2" id="Line-3-Copy-4" transform="translate(14.421875, 5.593750) rotate(157.000000) translate(-14.421875, -5.593750) "></line>
          <line x1="8.265625" y1="13.578125" x2="8.265625" y2="6.390625" id="Line-3-Copy-5" transform="translate(8.265625, 9.984375) rotate(134.000000) translate(-8.265625, -9.984375) "></line>
          <line x1="29.421875" y1="9.1875" x2="29.421875" y2="2" id="Line-3-Copy-3" transform="translate(29.421875, 5.593750) scale(-1, 1) rotate(157.000000) translate(-29.421875, -5.593750) "></line>
          <line x1="35.9375" y1="13.578125" x2="35.9375" y2="6.390625" id="Line-3-Copy-3" transform="translate(35.937500, 9.984375) scale(-1, 1) rotate(134.000000) translate(-35.937500, -9.984375) "></line>
          <line x1="21.921875" y1="7.6" x2="21.921875" y2="0.4" id="Line-3"></line>
        </g>
        <path d="M16.1088345,45 L16.1088345,41.854 C16.1088345,41.4506667 16.0886678,41.04 16.0483345,40.622 C16.0080012,40.204 15.9731678,39.8043333 15.9438345,39.423 L15.9438345,39.423 L15.9878345,39.423 L16.7248345,40.952 L18.9688345,45 L20.2778345,45 L20.2778345,37.806 L19.0568345,37.806 L19.0568345,40.93 C19.0568345,41.3333333 19.0770012,41.7495 19.1173345,42.1785 C19.1576678,42.6075 19.1925012,43.009 19.2218345,43.383 L19.2218345,43.383 L19.1778345,43.383 L18.4408345,41.854 L16.1968345,37.806 L14.8878345,37.806 L14.8878345,45 L16.1088345,45 Z M23.0501675,45 L23.6111675,43.053 L26.0311675,43.053 L26.5921675,45 L27.9341675,45 L25.5911675,37.806 L24.0951675,37.806 L21.7521675,45 L23.0501675,45 Z M25.7451675,42.052 L23.9081675,42.052 L24.1611675,41.172 C24.2785008,40.7906667 24.3885008,40.4001667 24.4911675,40.0005 C24.5938342,39.6008333 24.6965008,39.1993333 24.7991675,38.796 L24.7991675,38.796 L24.8431675,38.796 C24.9458342,39.192 25.0503342,39.5916667 25.1566675,39.995 C25.2630008,40.3983333 25.3748342,40.7906667 25.4921675,41.172 L25.4921675,41.172 L25.7451675,42.052 Z M31.4325005,45 L31.4325005,38.884 L33.5115005,38.884 L33.5115005,37.806 L28.0775005,37.806 L28.0775005,38.884 L30.1565005,38.884 L30.1565005,45 L31.4325005,45 Z M37.9888335,45.132 C38.4068335,45.132 38.7826668,45.0715 39.1163335,44.9505 C39.4500002,44.8295 39.7360002,44.637 39.9743335,44.373 C40.2126668,44.109 40.3941668,43.7698333 40.5188335,43.3555 C40.6435002,42.9411667 40.7058335,42.437 40.7058335,41.843 L40.7058335,41.843 L40.7058335,37.806 L39.4848335,37.806 L39.4848335,41.942 C39.4848335,42.3306667 39.4481668,42.6588333 39.3748335,42.9265 C39.3015002,43.1941667 39.1988335,43.4086667 39.0668335,43.57 C38.9348335,43.7313333 38.7771668,43.8468333 38.5938335,43.9165 C38.4105002,43.9861667 38.2088335,44.021 37.9888335,44.021 C37.7688335,44.021 37.5708335,43.9861667 37.3948335,43.9165 C37.2188335,43.8468333 37.0666668,43.7313333 36.9383335,43.57 C36.8100002,43.4086667 36.7110002,43.1941667 36.6413335,42.9265 C36.5716668,42.6588333 36.5368335,42.3306667 36.5368335,41.942 L36.5368335,41.942 L36.5368335,37.806 L35.2608335,37.806 L35.2608335,41.843 C35.2608335,42.437 35.3250002,42.9411667 35.4533335,43.3555 C35.5816668,43.7698333 35.7650002,44.109 36.0033335,44.373 C36.2416668,44.637 36.5276668,44.8295 36.8613335,44.9505 C37.1950002,45.0715 37.5708335,45.132 37.9888335,45.132 Z M44.3581665,45 L44.3581665,42.184 L45.4581665,42.184 L47.0091665,45 L48.4391665,45 L46.7231665,41.997 C47.1558332,41.8503333 47.5023332,41.6083333 47.7626665,41.271 C48.0229998,40.9336667 48.1531665,40.49 48.1531665,39.94 C48.1531665,39.5366667 48.0853332,39.1993333 47.9496665,38.928 C47.8139998,38.6566667 47.6288332,38.4385 47.3941665,38.2735 C47.1594998,38.1085 46.8808332,37.9893333 46.5581665,37.916 C46.2354998,37.8426667 45.8871665,37.806 45.5131665,37.806 L45.5131665,37.806 L43.0821665,37.806 L43.0821665,45 L44.3581665,45 Z M45.3811665,41.172 L44.3581665,41.172 L44.3581665,38.829 L45.3811665,38.829 C45.8724998,38.829 46.2483332,38.9096667 46.5086665,39.071 C46.7689998,39.2323333 46.8991665,39.522 46.8991665,39.94 C46.8991665,40.3506667 46.7689998,40.6586667 46.5086665,40.864 C46.2483332,41.0693333 45.8724998,41.172 45.3811665,41.172 L45.3811665,41.172 Z M50.4744995,45 L51.0354995,43.053 L53.4554995,43.053 L54.0164995,45 L55.3584995,45 L53.0154995,37.806 L51.5194995,37.806 L49.1764995,45 L50.4744995,45 Z M53.1694995,42.052 L51.3324995,42.052 L51.5854995,41.172 C51.7028328,40.7906667 51.8128328,40.4001667 51.9154995,40.0005 C52.0181662,39.6008333 52.1208328,39.1993333 52.2234995,38.796 L52.2234995,38.796 L52.2674995,38.796 C52.3701662,39.192 52.4746662,39.5916667 52.5809995,39.995 C52.6873328,40.3983333 52.7991662,40.7906667 52.9164995,41.172 L52.9164995,41.172 L53.1694995,42.052 Z M61.1008325,45 L61.1008325,43.922 L58.1088325,43.922 L58.1088325,37.806 L56.8328325,37.806 L56.8328325,45 L61.1008325,45 Z M13.834668,53 L13.834668,47.768 L12.906668,47.768 L12.906668,53 L13.834668,53 Z M16.4749102,53 L16.4749102,50.712 C16.4749102,50.4186667 16.4602435,50.12 16.4309102,49.816 C16.4015768,49.512 16.3762435,49.2213333 16.3549102,48.944 L16.3549102,48.944 L16.3869102,48.944 L16.9229102,50.056 L18.5549102,53 L19.5069102,53 L19.5069102,47.768 L18.6189102,47.768 L18.6189102,50.04 C18.6189102,50.3333333 18.6335768,50.636 18.6629102,50.948 C18.6922435,51.26 18.7175768,51.552 18.7389102,51.824 L18.7389102,51.824 L18.7069102,51.824 L18.1709102,50.712 L16.5389102,47.768 L15.5869102,47.768 L15.5869102,53 L16.4749102,53 Z M23.4511524,53.096 C23.8084857,53.096 24.1324857,53.036 24.4231524,52.916 C24.713819,52.796 24.9471524,52.648 25.1231524,52.472 L25.1231524,52.472 L25.1231524,50.168 L23.2991524,50.168 L23.2991524,50.928 L24.2911524,50.928 L24.2911524,52.056 C24.205819,52.1306667 24.0964857,52.188 23.9631524,52.228 C23.829819,52.268 23.6884857,52.288 23.5391524,52.288 C23.0111524,52.288 22.6124857,52.1186667 22.3431524,51.78 C22.073819,51.4413333 21.9391524,50.9733333 21.9391524,50.376 C21.9391524,50.0826667 21.9764857,49.8186667 22.0511524,49.584 C22.125819,49.3493333 22.2311524,49.1506667 22.3671524,48.988 C22.5031524,48.8253333 22.665819,48.7 22.8551524,48.612 C23.0444857,48.524 23.2564857,48.48 23.4911524,48.48 C23.7364857,48.48 23.9404857,48.524 24.1031524,48.612 C24.265819,48.7 24.413819,48.808 24.5471524,48.936 L24.5471524,48.936 L25.0431524,48.336 C24.877819,48.1653333 24.665819,48.012 24.4071524,47.876 C24.1484857,47.74 23.8324857,47.672 23.4591524,47.672 C23.1124857,47.672 22.7884857,47.7333333 22.4871524,47.856 C22.185819,47.9786667 21.9244857,48.1573333 21.7031524,48.392 C21.481819,48.6266667 21.3071524,48.9133333 21.1791524,49.252 C21.0511524,49.5906667 20.9871524,49.9733333 20.9871524,50.4 C20.9871524,50.832 21.0484857,51.216 21.1711524,51.552 C21.293819,51.888 21.465819,52.1706667 21.6871524,52.4 C21.9084857,52.6293333 22.169819,52.8026667 22.4711524,52.92 C22.7724857,53.0373333 23.0991524,53.096 23.4511524,53.096 Z M27.6353945,53 L27.6353945,50.952 L28.4353945,50.952 L29.5633945,53 L30.6033945,53 L29.3553945,50.816 C29.6700612,50.7093333 29.9220612,50.5333333 30.1113945,50.288 C30.3007279,50.0426667 30.3953945,49.72 30.3953945,49.32 C30.3953945,49.0266667 30.3460612,48.7813333 30.2473945,48.584 C30.1487279,48.3866667 30.0140612,48.228 29.8433945,48.108 C29.6727279,47.988 29.4700612,47.9013333 29.2353945,47.848 C29.0007279,47.7946667 28.7473945,47.768 28.4753945,47.768 L28.4753945,47.768 L26.7073945,47.768 L26.7073945,53 L27.6353945,53 Z M28.3793945,50.216 L27.6353945,50.216 L27.6353945,48.512 L28.3793945,48.512 C28.7367279,48.512 29.0100612,48.5706667 29.1993945,48.688 C29.3887279,48.8053333 29.4833945,49.016 29.4833945,49.32 C29.4833945,49.6186667 29.3887279,49.8426667 29.1993945,49.992 C29.0100612,50.1413333 28.7367279,50.216 28.3793945,50.216 L28.3793945,50.216 Z M35.0996367,53 L35.0996367,52.216 L32.7956367,52.216 L32.7956367,50.672 L34.6756367,50.672 L34.6756367,49.888 L32.7956367,49.888 L32.7956367,48.552 L35.0196367,48.552 L35.0196367,47.768 L31.8676367,47.768 L31.8676367,53 L35.0996367,53 Z M38.0438789,53 C38.4332122,53 38.7812122,52.944 39.0878789,52.832 C39.3945456,52.72 39.6558789,52.5533333 39.8718789,52.332 C40.0878789,52.1106667 40.2532122,51.8346667 40.3678789,51.504 C40.4825456,51.1733333 40.5398789,50.792 40.5398789,50.36 C40.5398789,49.496 40.3158789,48.848 39.8678789,48.416 C39.4198789,47.984 38.7958789,47.768 37.9958789,47.768 L37.9958789,47.768 L36.5958789,47.768 L36.5958789,53 L38.0438789,53 Z M37.9318789,52.248 L37.5238789,52.248 L37.5238789,48.52 L37.9318789,48.52 C38.4598789,48.52 38.8678789,48.6666667 39.1558789,48.96 C39.4438789,49.2533333 39.5878789,49.72 39.5878789,50.36 C39.5878789,51.0053333 39.4452122,51.4813333 39.1598789,51.788 C38.8745456,52.0946667 38.4652122,52.248 37.9318789,52.248 L37.9318789,52.248 Z M42.9481211,53 L42.9481211,47.768 L42.0201211,47.768 L42.0201211,53 L42.9481211,53 Z M47.9323633,53 L47.9323633,52.216 L45.6283633,52.216 L45.6283633,50.672 L47.5083633,50.672 L47.5083633,49.888 L45.6283633,49.888 L45.6283633,48.552 L47.8523633,48.552 L47.8523633,47.768 L44.7003633,47.768 L44.7003633,53 L47.9323633,53 Z M50.3166055,53 L50.3166055,50.712 C50.3166055,50.4186667 50.3019388,50.12 50.2726055,49.816 C50.2432721,49.512 50.2179388,49.2213333 50.1966055,48.944 L50.1966055,48.944 L50.2286055,48.944 L50.7646055,50.056 L52.3966055,53 L53.3486055,53 L53.3486055,47.768 L52.4606055,47.768 L52.4606055,50.04 C52.4606055,50.3333333 52.4752721,50.636 52.5046055,50.948 C52.5339388,51.26 52.5592721,51.552 52.5806055,51.824 L52.5806055,51.824 L52.5486055,51.824 L52.0126055,50.712 L50.3806055,47.768 L49.4286055,47.768 L49.4286055,53 L50.3166055,53 Z M57.0848476,53 L57.0848476,48.552 L58.5968476,48.552 L58.5968476,47.768 L54.6448476,47.768 L54.6448476,48.552 L56.1568476,48.552 L56.1568476,53 L57.0848476,53 Z M61.1650898,53.096 C61.4584232,53.096 61.7210898,53.0546667 61.9530898,52.972 C62.1850898,52.8893333 62.3824232,52.7773333 62.5450898,52.636 C62.7077565,52.4946667 62.8317565,52.3306667 62.9170898,52.144 C63.0024232,51.9573333 63.0450898,51.7573333 63.0450898,51.544 C63.0450898,51.352 63.0184232,51.1826667 62.9650898,51.036 C62.9117565,50.8893333 62.8384232,50.76 62.7450898,50.648 C62.6517565,50.536 62.5410898,50.4373333 62.4130898,50.352 C62.2850898,50.2666667 62.1437565,50.192 61.9890898,50.128 L61.9890898,50.128 L61.2770898,49.832 C61.1704232,49.7893333 61.0664232,49.7453333 60.9650898,49.7 C60.8637565,49.6546667 60.7744232,49.604 60.6970898,49.548 C60.6197565,49.492 60.5584232,49.428 60.5130898,49.356 C60.4677565,49.284 60.4450898,49.1973333 60.4450898,49.096 C60.4450898,48.904 60.5197565,48.7533333 60.6690898,48.644 C60.8184232,48.5346667 61.0184232,48.48 61.2690898,48.48 C61.4930898,48.48 61.6957565,48.52 61.8770898,48.6 C62.0584232,48.68 62.2344232,48.7893333 62.4050898,48.928 L62.4050898,48.928 L62.8770898,48.336 C62.6744232,48.1333333 62.4317565,47.972 62.1490898,47.852 C61.8664232,47.732 61.5730898,47.672 61.2690898,47.672 C61.0130898,47.672 60.7770898,47.7093333 60.5610898,47.784 C60.3450898,47.8586667 60.1597565,47.9626667 60.0050898,48.096 C59.8504232,48.2293333 59.7290898,48.3853333 59.6410898,48.564 C59.5530898,48.7426667 59.5090898,48.936 59.5090898,49.144 C59.5090898,49.336 59.5397565,49.5066667 59.6010898,49.656 C59.6624232,49.8053333 59.7437565,49.936 59.8450898,50.048 C59.9464232,50.16 60.0597565,50.256 60.1850898,50.336 C60.3104232,50.416 60.4370898,50.4826667 60.5650898,50.536 L60.5650898,50.536 L61.2850898,50.848 C61.4024232,50.896 61.5104232,50.944 61.6090898,50.992 C61.7077565,51.04 61.7930898,51.092 61.8650898,51.148 C61.9370898,51.204 61.9930898,51.2693333 62.0330898,51.344 C62.0730898,51.4186667 62.0930898,51.5093333 62.0930898,51.616 C62.0930898,51.8186667 62.0157565,51.9813333 61.8610898,52.104 C61.7064232,52.2266667 61.4797565,52.288 61.1810898,52.288 C60.9410898,52.288 60.7010898,52.2333333 60.4610898,52.124 C60.2210898,52.0146667 60.0077565,51.872 59.8210898,51.696 L59.8210898,51.696 L59.2770898,52.328 C59.5277565,52.5733333 59.8170898,52.7626667 60.1450898,52.896 C60.4730898,53.0293333 60.8130898,53.096 61.1650898,53.096 Z" id="NATURALINGREDIENTS" fill="currentColor" fill-rule="nonzero"></path>
      </g>
    </g>
  </g>
</svg>