<svg xmlns="http://www.w3.org/2000/svg" xmlns:xlink="http://www.w3.org/1999/xlink" xml:space="preserve" version="1.1" style="shape-rendering:geometricPrecision;text-rendering:geometricPrecision;image-rendering:optimizeQuality;" viewBox="0 0 846.66 1058.325" x="0px" y="0px" fill-rule="evenodd" clip-rule="evenodd"><defs><style type="text/css">
   
    .fil0 {fill:black}
   
  </style></defs><g><path class="fil0" d="M714.55 254.6l10.68 3.58c10.29,3.46 17.26,13.12 17.27,24l0.54 411.03c0.08,63.58 -51.74,115.48 -115.31,115.56 -133.85,0.18 -269.97,4.22 -403.47,0.81 -66.3,-1.71 -119.88,-46.95 -119.97,-115.58l-0.67 -503.62c-0.11,-84.95 69.2,-154.39 154.15,-154.5l118.97 -0.15c92.06,-0.12 153.93,68.99 156.25,158.06l5.22 1.75 13.52 -40.35c4.44,-13.26 18.8,-20.42 32.06,-15.98l128.29 42.97c13.27,4.44 20.43,18.79 15.99,32.05l-13.52 40.37zm-490.3 503.78c133.49,-3.75 269.6,-0.06 403.46,-0.24 35.56,-0.05 64.74,-29.37 64.69,-64.91l-0.51 -392.79c-64.06,-21.45 -128.11,-42.9 -192.17,-64.36 -10.6,-3.55 -17.67,-13.76 -17.27,-24.91 -0.15,-68.61 -28.32,-124.9 -104.52,-124.8l-120.15 0.15c-56.93,0.07 -103.59,46.93 -103.52,103.85 0.1,83.4 0.75,166.84 1.05,250.25 0.29,82.16 2.04,165.76 -0.05,247.85 -1.04,41.62 26.7,71.11 68.99,69.91zm17.38 -631.68l149.37 -0.24c28.61,-0.04 51.83,23.17 51.86,51.77l0.04 36.05c0.04,28.6 -23.2,51.82 -51.79,51.87l-149.38 0.24c-28.59,0.04 -51.82,-23.19 -51.85,-51.77l-0.04 -36.04c-0.03,-28.6 23.2,-51.83 51.79,-51.88zm149.39 50.4l-149.37 0.24c-0.57,0 -1.17,0.67 -1.17,1.22l0.04 36.05c0,0.55 0.65,1.14 1.19,1.14l149.38 -0.23c0.57,0 1.18,-0.68 1.18,-1.23l-0.04 -36.04c0,-0.57 -0.66,-1.15 -1.21,-1.15zm280.96 45.07l-80.26 -26.88 -5.47 16.34 80.26 26.88 5.47 -16.34z"/></g><text x="0" y="861.66" fill="#000000" font-size="5px" font-weight="bold" font-family="'Helvetica Neue', Helvetica, Arial-Unicode, Arial, Sans-serif">Created by Zahroe</text><text x="0" y="866.66" fill="#000000" font-size="5px" font-weight="bold" font-family="'Helvetica Neue', Helvetica, Arial-Unicode, Arial, Sans-serif">from the Noun Project</text></svg>