<?xml version="1.0" encoding="UTF-8" standalone="no"?>
<svg
   xmlns:dc="http://purl.org/dc/elements/1.1/"
   xmlns:cc="http://creativecommons.org/ns#"
   xmlns:rdf="http://www.w3.org/1999/02/22-rdf-syntax-ns#"
   xmlns:svg="http://www.w3.org/2000/svg"
   xmlns="http://www.w3.org/2000/svg"
   height="100"
   width="100"
   id="svg977"
   version="1.1"
   y="0px"
   x="0px"
   viewBox="0 0 100 100"
   data-name="Layer 1">
  <metadata
     id="metadata983">
    <rdf:RDF>
      <cc:Work
         rdf:about="">
        <dc:format>image/svg+xml</dc:format>
        <dc:type
           rdf:resource="http://purl.org/dc/dcmitype/StillImage" />
        <dc:title>hospital_6</dc:title>
      </cc:Work>
    </rdf:RDF>
  </metadata>
  <defs
     id="defs981" />
  <title
     id="title969">hospital_6</title>
  <path
     id="path971"
     d="m 74.852594,67.383443 -14.52,-29.1 v -21.32 c 0,-1.104569 -0.895431,-2 -2,-2 h -17 c -1.104569,0 -2,0.895431 -2,2 v 21.32 l -14.48,29.1 c -2.659032,5.313785 1.19806,11.569405 7.14,11.58 h 35.72 c 5.94194,-0.01059 9.799032,-6.266215 7.14,-11.58 z m -7.14,7.58 h -35.72 c -2.986805,0.01337 -4.934106,-3.132686 -3.59,-5.8 l 13.61,-27.2 h 7.84 c 2.666666,0 2.666666,-4 0,-4 h -6.48 v -3.3 h 6.48 c 2.666666,0 2.666666,-4 0,-4 h -6.48 v -3.3 h 6.48 c 2.666666,0 2.666666,-4 0,-4 h -6.48 v -4.4 h 13 v 19.79 c 4.464223,10.175107 9.915733,20.357621 14.93,30.41 1.055459,2.8618 -0.785429,5.748857 -3.59,5.8 z" />
</svg>
