<svg
  xmlns="http://www.w3.org/2000/svg" viewBox="0 0 96 120">
  <path d="M6.625 13.625C6.625 13.9014 6.84888 14.125 7.125 14.125C7.40112 14.125 7.625 13.9014 7.625 13.625V12.625H8.625C8.90112 12.625 9.125 12.4014 9.125 12.125C9.125 11.8486 8.90112 11.625 8.625 11.625H7.625V10.625C7.625 10.3486 7.40112 10.125 7.125 10.125C6.84888 10.125 6.625 10.3486 6.625 10.625V11.625H5.625C5.34888 11.625 5.125 11.8486 5.125 12.125C5.125 12.4014 5.34888 12.625 5.625 12.625H6.625V13.625Z"/>
  <path fill-rule="evenodd" clip-rule="evenodd" d="M13.25 1.625V3.12451C13.8372 3.36963 14.25 3.94922 14.25 4.625C14.25 5.48047 13.5891 6.18164 12.75 6.24512V17.625C12.75 18.5225 12.0225 19.25 11.125 19.25H3.125C2.22754 19.25 1.5 18.5225 1.5 17.625V6.24512C0.660889 6.18164 0 5.48047 0 4.625C0 3.94922 0.412842 3.36963 1 3.12451V1.625C1 0.727539 1.72754 0 2.625 0H11.625C12.5225 0 13.25 0.727539 13.25 1.625ZM2.25 1.625C2.25 1.41797 2.41797 1.25 2.625 1.25H11.625C11.832 1.25 12 1.41797 12 1.625V3H2.25V1.625ZM2.75 6.25H11.5V7.5H2.75V6.25ZM2.75 8.75H11.5V15.5H2.75V8.75ZM2.75 17.625V16.75H11.5V17.625C11.5 17.832 11.332 18 11.125 18H3.125C2.91797 18 2.75 17.832 2.75 17.625ZM1.25 4.625C1.25 4.41797 1.41797 4.25 1.625 4.25H12.625C12.832 4.25 13 4.41797 13 4.625C13 4.83203 12.832 5 12.625 5H1.625C1.41797 5 1.25 4.83203 1.25 4.625Z"/>
</svg>