<svg xmlns="http://www.w3.org/2000/svg" viewBox="0 0 32 40" x="0px" y="0px"><title>Artboard 50</title><g data-name="Layer 51"><path d="M17.73,17H14.27A8.28,8.28,0,0,0,6,25.27V28a1,1,0,0,0,1,1H25a1,1,0,0,0,1-1V25.27A8.28,8.28,0,0,0,17.73,17ZM24,27H8V25.27A6.27,6.27,0,0,1,14.27,19h3.46A6.27,6.27,0,0,1,24,25.27Z"/><path d="M16,15a6,6,0,1,0-6-6A6,6,0,0,0,16,15ZM16,5a4,4,0,1,1-4,4A4,4,0,0,1,16,5Z"/></g><text x="0" y="47" fill="#000000" font-size="5px" font-weight="bold" font-family="'Helvetica Neue', Helvetica, Arial-Unicode, Arial, Sans-serif">Created by Kawalan Icon</text><text x="0" y="52" fill="#000000" font-size="5px" font-weight="bold" font-family="'Helvetica Neue', Helvetica, Arial-Unicode, Arial, Sans-serif">from the Noun Project</text></svg>