<?xml version="1.0" encoding="UTF-8" standalone="no"?>
<svg
   xmlns:dc="http://purl.org/dc/elements/1.1/"
   xmlns:cc="http://creativecommons.org/ns#"
   xmlns:rdf="http://www.w3.org/1999/02/22-rdf-syntax-ns#"
   xmlns:svg="http://www.w3.org/2000/svg"
   xmlns="http://www.w3.org/2000/svg"
   xmlns:sodipodi="http://sodipodi.sourceforge.net/DTD/sodipodi-0.dtd"
   xmlns:inkscape="http://www.inkscape.org/namespaces/inkscape"
   version="1.1"
   x="0px"
   y="0px"
   viewBox="0 0 100 100"
   xml:space="preserve"
   id="svg12"
   sodipodi:docname="noun_Truck_988849.svg"
   inkscape:version="0.92.3 (2405546, 2018-03-11)"
   width="100"
   height="100"><metadata
     id="metadata18"><rdf:RDF><cc:Work
         rdf:about=""><dc:format>image/svg+xml</dc:format><dc:type
           rdf:resource="http://purl.org/dc/dcmitype/StillImage" /><dc:title></dc:title></cc:Work></rdf:RDF></metadata><defs
     id="defs16" /><sodipodi:namedview
     pagecolor="#ffffff"
     bordercolor="#666666"
     borderopacity="1"
     objecttolerance="10"
     gridtolerance="10"
     guidetolerance="10"
     inkscape:pageopacity="0"
     inkscape:pageshadow="2"
     inkscape:window-width="1920"
     inkscape:window-height="1017"
     id="namedview14"
     showgrid="false"
     inkscape:zoom="7.552"
     inkscape:cx="54.880554"
     inkscape:cy="52.84258"
     inkscape:window-x="-8"
     inkscape:window-y="-8"
     inkscape:window-maximized="1"
     inkscape:current-layer="svg12" /><path
     inkscape:connector-curvature="0"
     d="m 78.980773,64.946999 c 5.026679,0 9.116279,4.089599 9.116279,9.114833 0,5.026679 -4.0896,9.116279 -9.116279,9.116279 -5.02668,0 -9.114834,-4.0896 -9.114834,-9.116279 0,-5.02668 4.0896,-9.114833 9.114834,-9.114833 z m 0.0014,14.148743 c 2.78087,0 5.03391,-2.254486 5.03391,-5.03391 0,-2.78087 -2.254486,-5.03391 -5.03391,-5.03391 -2.78087,0 -5.03391,2.254486 -5.03391,5.03391 -0.0014,2.78087 2.25304,5.03391 5.03391,5.03391 z"
     id="path2"
     style="stroke-width:1.44611025" /><path
     inkscape:connector-curvature="0"
     d="m 19.545639,64.946999 c 5.02668,0 9.114834,4.089599 9.114834,9.114833 0,5.026679 -4.0896,9.116279 -9.114834,9.116279 -5.025233,0 -9.114833,-4.0896 -9.114833,-9.116279 0,-5.02668 4.088154,-9.114833 9.114833,-9.114833 z m 0,14.148743 c 2.78087,0 5.03391,-2.254486 5.03391,-5.03391 0,-2.78087 -2.254486,-5.03391 -5.03391,-5.03391 -2.78087,0 -5.03391,2.254486 -5.03391,5.03391 -0.0014,2.78087 2.25304,5.03391 5.03391,5.03391 z"
     id="path4"
     style="stroke-width:1.44611025" /><path
     inkscape:connector-curvature="0"
     d="M 6.9283269,16.821894 H 49.773683 c 3.476449,0 6.332333,2.81867 6.294918,6.294918 l -0.135399,12.579724 c 2.358073,0.02746 0.01692,0.01692 2.358073,0.02746 0,-2.575522 2.088184,-4.663705 4.663706,-4.663705 h 12.734447 c 2.01154,0 3.942097,0.785237 5.383869,2.187964 l 15.954935,15.534117 c 1.492386,1.453341 2.334022,3.447527 2.334022,5.529926 v 12.793738 c 0,2.575522 -2.088183,4.663706 -4.663706,4.663706 h -3.93342 c -1.073013,-5.52848 -5.946405,-9.714969 -11.782906,-9.714969 -5.836502,0 -10.708447,4.187935 -11.781461,9.714969 -12.306391,0 -25.243449,0 -35.870766,0 -1.073014,-5.52848 -5.944959,-9.714969 -11.781461,-9.714969 -5.836501,0 -10.7084463,4.187935 -11.7814602,9.714969 H 6.9326682 c -3.4764492,0 -6.29491817,-2.818469 -6.29491817,-6.294919 V 23.118254 C 0.6334117,19.640359 3.4518807,16.82189 6.9283298,16.82189 Z M 63.08802,45.391249 c 0,1.091813 0.88502,1.976833 1.976833,1.976833 h 17.98672 c 1.761362,0 2.64349,-2.130121 1.398389,-3.375222 l -7.350579,-7.350578 c -0.370204,-0.370205 -0.87345,-0.579891 -1.398389,-0.579891 H 65.064853 c -1.091813,0 -1.976833,0.88502 -1.976833,1.976833 z"
     id="path6"
     sodipodi:nodetypes="sssccssccssscsccscsscsssssssssss"
     style="stroke-width:1.44611025" /></svg>