<svg
  xmlns="http://www.w3.org/2000/svg" viewBox="0 0 100 125">
  <path d="M72.339,39.567l-7.033-5.607l3.388-4.245c-1.123-1.724-1.126-3.949,0.125-5.515c1.552-1.938,4.752-2.173,6.838-0.521   c0.797,0.644,1.382,1.479,1.693,2.407c0.98,0.1,1.931,0.49,2.719,1.119c2.159,1.732,2.607,4.774,1.003,6.785   c-1.209,1.524-3.459,2.062-5.351,1.343L72.339,39.567z M69.317,33.509l2.57,2.053l3.173-3.972l1.098,0.771   c0.891,0.632,2.114,0.565,2.682-0.15c0.63-0.785,0.379-2.03-0.554-2.78c-0.529-0.418-1.215-0.59-1.836-0.487l-1.618,0.304   l-0.069-1.646c-0.025-0.643-0.352-1.259-0.889-1.693c-0.892-0.707-2.226-0.683-2.827,0.072c-0.585,0.733-0.39,1.9,0.445,2.66   l0.992,0.9L69.317,33.509z"/>
  <path d="M53.432,72.387c-0.002,0-0.002,0-0.002,0c-3.758-0.003-7.271-1.22-10.156-3.526c-3.515-2.808-5.663-6.888-6.047-11.492   c-0.381-4.573,1.025-9.119,3.964-12.796c2.914-3.641,7-6.011,11.509-6.671l2.615-0.161c6.934-0.744,10.838-4.633,10.877-4.672   l0.903-0.916l6.924,5.526l-0.892,1.114c-2.71,3.387-2.334,9.501-2.044,11.974c0.125,0.594,0.242,1.317,0.298,2.039l0.078,0.961   l-0.033,0.017c0.105,4.215-1.301,8.351-4.011,11.746C63.93,69.889,58.833,72.387,53.432,72.387z M67.256,35.927   c-1.732,1.387-5.716,4.014-11.704,4.654l-2.56,0.156c-3.671,0.543-7.114,2.543-9.574,5.617c-2.481,3.104-3.671,6.931-3.351,10.777   c0.32,3.813,2.089,7.188,4.986,9.501c2.376,1.896,5.272,2.899,8.376,2.902h0.002c4.532,0,8.816-2.108,11.755-5.785   c2.459-3.084,3.648-6.88,3.348-10.696l-0.042-0.496c-0.05-0.423-0.131-0.886-0.226-1.342c-0.387-3.298-0.587-8.964,1.822-13.027   L67.256,35.927z"/>
  <path d="M46.6,84.746c-19.718,0-38.341,0-38.341-16.999c0-16.063,17.2-29.133,38.341-29.133c1.072,0,2.125,0.048,3.178,0.114   l6.782,0.426l-6.381,2.337c-2.657,0.973-4.997,2.655-6.76,4.863c-2.481,3.104-3.671,6.931-3.351,10.777   c0.32,3.813,2.089,7.188,4.986,9.501c2.376,1.896,5.272,2.902,8.376,2.902c4.534-0.003,8.818-2.108,11.757-5.785   c2.459-3.084,3.648-6.88,3.348-10.696l-0.042-0.496c-0.05-0.423-0.131-0.886-0.226-1.342c-0.158-1.318-0.304-3.185-0.197-5.262   l0.117-2.368l2.036,1.215c8.459,5.044,13.709,12.518,14.553,20.628c4.095,1.263,6.967,5.07,6.967,9.435   c0,5.448-4.432,9.88-9.88,9.88H57.54c-0.301,0-0.593-0.036-0.883-0.075C53.415,84.731,50.07,84.746,46.6,84.746z M44.293,41.522   c-18.498,0.883-33.182,12.309-33.182,26.225c0,13.194,13.406,14.146,35.489,14.146c3.442,0,6.766-0.014,9.924-0.101l0.513,0.051   c0.167,0.021,0.332,0.047,0.504,0.047h24.322c3.874,0,7.027-3.153,7.027-7.027c0-3.367-2.406-6.27-5.718-6.896l-1.098-0.206   l-0.062-1.114c-0.387-6.854-4.396-13.306-11.1-18.005c0.036,0.83,0.103,1.56,0.17,2.125c0.125,0.594,0.242,1.317,0.298,2.039   l0.078,0.964l-0.033,0.017c0.105,4.212-1.301,8.348-4.011,11.743c-3.485,4.359-8.582,6.854-13.985,6.857   c-3.755,0-7.268-1.22-10.156-3.526c-3.515-2.808-5.663-6.888-6.047-11.492c-0.381-4.573,1.025-9.119,3.964-12.796   C42.104,43.431,43.146,42.408,44.293,41.522z"/>
  <path d="M46.018,62.081c-2.117,0-3.655-2.54-3.655-6.041c0-3.502,1.538-6.042,3.655-6.042c2.117,0,3.654,2.54,3.654,6.042   C49.672,59.541,48.134,62.081,46.018,62.081z M45.903,52.828c-0.042,0.147-0.688,1.278-0.688,3.212   c0,1.696,0.499,2.776,0.802,3.113c0.303-0.337,0.802-1.417,0.802-3.113C46.819,54.106,46.173,52.976,45.903,52.828z"/>
  <path d="M46.343,77.298c-8.696-2.749-12.701-8.985-14.528-13.732l2.663-1.024c1.602,4.164,5.111,9.632,12.724,12.038L46.343,77.298   z"/>
  <path d="M30.606,59.496c-0.426-2.003-0.477-3.354-0.479-3.409l2.852-0.098c0,0.012,0.047,1.176,0.418,2.911L30.606,59.496z"/>
</svg>