<svg
  xmlns="http://www.w3.org/2000/svg"
  xmlns:xlink="http://www.w3.org/1999/xlink" version="1.1" x="0px" y="0px" viewBox="0 0 100 125" style="enable-background:new 0 0 100 100;" xml:space="preserve">
  <path d="M50,10c-22.0556641,0-40,17.9443359-40,40s17.9443359,40,40,40s40-17.9443359,40-40S72.0556641,10,50,10z M50,88  c-20.953125,0-38-17.046875-38-38c0-10.1176147,3.9824219-19.3170166,10.4523315-26.133606l5.895752,5.895752  c-0.8057861,1.4215088-1.3306885,3.024292-1.4760132,4.7407837c-0.3427734,4.0429688,1.3476562,7.8525391,4.5400391,10.2949219  v27.1113281c0,2.328125,1.8945312,4.2226562,4.2226562,4.2226562h28.7304688c2.328125,0,4.2226562-1.8945312,4.2226562-4.2226562  v-1.9072266l7.5457153,7.5457153C69.3170166,84.0175781,60.1176147,88,50,88z M66.5878906,68.0019531v3.9072266  c0,1.2255859-0.9970703,2.2226562-2.2226562,2.2226562H35.6347656c-1.2255859,0-2.2226562-0.9970703-2.2226562-2.2226562V44.2910156  c0-0.3261719-0.1591797-0.6328125-0.4277344-0.8193359c-2.8759766-2.0097656-4.4160156-5.2998047-4.1201172-8.8007812  c0.1026001-1.2125244,0.4447021-2.3668823,0.9733887-3.4191895L66.5878906,68.0019531z M30.9475098,29.5334473  c1.7189331-2.1522217,4.3162842-3.5921021,7.1784668-3.708252c0.1367188-0.0058594,0.2734375-0.0087891,0.4091797-0.0087891  c1.2011719,0,2.3720703,0.21875,3.4863281,0.6513672c2.1152344,0.8203125,4.5136719,1.203125,7.5458984,1.203125h0.8642578  c3.0322266,0,5.4306641-0.3828125,7.546875-1.203125c1.2412109-0.4814453,2.5488281-0.7001953,3.8964844-0.6425781  c4.7890625,0.1953125,8.8574219,4.0810547,9.2607422,8.8457031c0.2958984,3.5009766-1.2441406,6.7910156-4.1201172,8.8007812  c-0.2685547,0.1865234-0.4277344,0.4931641-0.4277344,0.8193359v20.8828125L30.9475098,29.5334473z M77.5476685,76.133606  l-8.9597778-8.9597778V44.7978516c3.1923828-2.4423828,4.8828125-6.2519531,4.5400391-10.2949219  c-0.4951172-5.8466797-5.2978516-10.4365234-11.1708984-10.6757812c-1.6191406-0.0673828-3.2011719,0.1943359-4.7011719,0.7753906  c-1.8789062,0.7285156-4.0478516,1.0683594-6.8242188,1.0683594h-0.8642578c-2.7773438,0-4.9453125-0.3398438-6.8232422-1.0683594  c-1.4970703-0.5810547-3.0683594-0.84375-4.7001953-0.7753906c-3.4303589,0.1391602-6.4874878,1.769104-8.5425415,4.2601929  l-5.6350098-5.6350098C30.6829834,15.9824219,39.8823853,12,50,12c20.953125,0,38,17.046875,38,38  C88,60.1176147,84.0175781,69.3170166,77.5476685,76.133606z"/>
</svg>