<svg xmlns:dc="http://purl.org/dc/elements/1.1/" xmlns:cc="http://creativecommons.org/ns#" xmlns:rdf="http://www.w3.org/1999/02/22-rdf-syntax-ns#" xmlns:svg="http://www.w3.org/2000/svg" xmlns="http://www.w3.org/2000/svg" xmlns:sodipodi="http://sodipodi.sourceforge.net/DTD/sodipodi-0.dtd" xmlns:inkscape="http://www.inkscape.org/namespaces/inkscape" version="1.1" x="0px" y="0px" viewBox="0 0 100 125"><g transform="translate(0,-952.36218)"><path style="color:#000000;enable-background:accumulate;" d="m 51.875,960.36217 c 11.426251,0 20.625,9.1029 20.625,20.4034 l 0,13.9602 0.5,0.6364 c 4.7165,0 7,3.24178 7,8.04403 l 0,32.2756 c 0,4.8022 -3.808891,8.6804 -8.525391,8.6804 l -42.949219,0 C 23.808891,1044.3622 20,1040.484 20,1035.6818 l 0,-32.2756 c 0,-4.80225 2.283501,-8.04403 7,-8.04403 l 0.5,-0.6363 0,-13.9603 c 0,-11.3005 9.198749,-20.4034 20.625,-20.4034 z m -0.38086,7.6364 -2.98828,0 c -9.045782,0 -16.31836,7.08 -16.31836,15.8693 l 0,10.8579 35.625,0 0,-10.8579 c 0,-8.7893 -7.272579,-15.8693 -16.31836,-15.8693 z M 50,1007.1349 c -3.624369,0 -6.5625,2.9915 -6.5625,6.6819 0,2.3457 1.192218,4.4156 2.988281,5.608 -0.09798,0.3416 -0.175781,0.6989 -0.175781,1.0738 l 0,7.6364 c 0,2.1152 1.6725,3.8182 3.75,3.8182 2.0775,0 3.75,-1.703 3.75,-3.8182 l 0,-7.6364 c 0,-0.3749 -0.07781,-0.7322 -0.175782,-1.0738 1.79606,-1.1924 2.988282,-3.2623 2.988282,-5.608 0,-3.6904 -2.938131,-6.6819 -6.5625,-6.6819 z" fill="#000000" fill-opacity="1" stroke="#000000" stroke-width="4" stroke-linecap="round" stroke-linejoin="round" stroke-miterlimit="4" stroke-opacity="1" stroke-dasharray="none" stroke-dashoffset="0" marker="none" visibility="visible" display="inline" overflow="visible"/></g><text x="0" y="115" fill="#000000" font-size="5px" font-weight="bold" font-family="'Helvetica Neue', Helvetica, Arial-Unicode, Arial, Sans-serif">Created by Icons fest</text><text x="0" y="120" fill="#000000" font-size="5px" font-weight="bold" font-family="'Helvetica Neue', Helvetica, Arial-Unicode, Arial, Sans-serif">from the Noun Project</text></svg>