<?xml version="1.0" encoding="UTF-8"?>
<svg width="60px" height="60px" viewBox="0 0 60 60" version="1.1" xmlns="http://www.w3.org/2000/svg" xmlns:xlink="http://www.w3.org/1999/xlink">
    <title>EBC3E801-5A27-492C-8C21-25A5E2E880AE</title>
    <g id="desktop" stroke="none" stroke-width="1" fill="none" fill-rule="evenodd">
        <g id="1.0_phenq-design" transform="translate(-139.000000, -1366.000000)">
            <rect fill="#FAFAFA" x="0" y="0" width="1440" height="9871"></rect>
            <rect id="Rectangle" fill="#FFFFFF" x="0" y="1108" width="1440" height="1253"></rect>
            <g id="phenq-fatgrowth" transform="translate(139.000000, 1366.000000)">
                <circle id="Oval" fill="#D7F4C8" cx="29.625" cy="29.625" r="29.625"></circle>
                <g id="components/benefits/icons/reduceface" transform="translate(12.000000, 12.000000)" stroke="#273583" stroke-linecap="round" stroke-linejoin="round" stroke-width="1.3825">
                    <g id="Group">
                        <g id="Light">
                            <line x1="17.2535994" y1="34.4772446" x2="17.2535994" y2="29.2352656" id="Shape"></line>
                            <path d="M7.39119035,0.0299541656 L8.19995282,3.92399569 C8.86715294,7.6118258 8.03415937,11.4134036 5.88599353,14.4843368 C3.27998113,18.3019952 2.57605824,23.0557212 3.27848342,28.4864115 L4.523079,34.4772446" id="Shape"></path>
                            <path d="M29.9841197,34.4772446 L31.2287153,28.4864115 C31.9251497,23.0557212 31.2287153,18.3019952 28.6212052,14.4843368 C26.4730394,11.4134036 25.6400458,7.6118258 26.3072459,3.92399569 L27.1160084,0.0299541656" id="Shape"></path>
                            <line x1="0.0299541656" y1="9.01620384" x2="5.27193314" y2="9.01620384" id="Shape"></line>
                            <polyline id="Shape" points="3.77422486 6.76964142 5.27193314 9.01620384 3.77422486 11.2627663"></polyline>
                            <line x1="34.4772446" y1="9.01620384" x2="29.2352656" y2="9.01620384" id="Shape"></line>
                            <polyline id="Shape" points="30.7329739 6.76964142 29.2352656 9.01620384 30.7329739 11.2627663"></polyline>
                            <path d="M3.32491238,20.9978701 C8.02022783,21.2390011 17.2535994,29.2352656 17.2535994,29.2352656 C17.2535994,29.2352656 26.4869709,21.2390011 31.1822864,20.9978701 L3.32491238,20.9978701 Z" id="Shape"></path>
                            <path d="M17.2535994,14.6326099 C17.4603897,14.6326099 17.6280264,14.8002466 17.6280264,15.0070369" id="Shape"></path>
                            <path d="M16.8791723,15.0070369 C16.8791723,14.8002466 17.046809,14.6326099 17.2535994,14.6326099" id="Shape"></path>
                            <path d="M17.2535994,15.381464 C17.046809,15.381464 16.8791723,15.2138273 16.8791723,15.0070369" id="Shape"></path>
                            <path d="M17.6280264,15.0070369 C17.6280264,15.2138273 17.4603897,15.381464 17.2535994,15.381464" id="Shape"></path>
                        </g>
                    </g>
                </g>
            </g>
        </g>
    </g>
</svg>