<?xml version="1.0" encoding="UTF-8"?>
<svg width="60px" height="60px" viewBox="0 0 60 60" version="1.1" xmlns="http://www.w3.org/2000/svg" xmlns:xlink="http://www.w3.org/1999/xlink">
    <title>9722DE36-0BFC-4D49-ABB2-C30FE5E99A4E</title>
    <g id="desktop" stroke="none" stroke-width="1" fill="none" fill-rule="evenodd">
        <g id="1.0_phenq-design" transform="translate(-926.000000, -1366.000000)">
            <rect fill="#FAFAFA" x="0" y="0" width="1440" height="9871"></rect>
            <rect id="Rectangle" fill="#FFFFFF" x="0" y="1108" width="1440" height="1253"></rect>
            <g id="phenq-foodcravings" transform="translate(926.000000, 1366.000000)">
                <circle id="Oval" fill="#D7F4C8" cx="30" cy="30" r="30"></circle>
                <g id="components/benefits/icons/reduceface" transform="translate(10.632911, 10.392405)" stroke="#273583" stroke-linecap="round" stroke-linejoin="round" stroke-width="1.4">
                    <g id="Group" transform="translate(3.797468, 0.240506)">
                        <g id="Light">
                            <path d="M15.1898734,34.8417722 C17.5632911,34.8417722 15.9810127,36.4240506 20.7278481,36.4240506 C25.4746835,36.4240506 30.221519,26.9303797 30.221519,20.6012658 C30.221519,14.2721519 26.2658228,9.52531646 21.5189873,9.52531646 C16.7721519,9.52531646 16.7721519,11.1075949 15.1898734,11.1075949 C13.6075949,11.1075949 13.6075949,9.52531646 8.86075949,9.52531646 C4.11392405,9.52531646 0.158227848,14.2721519 0.158227848,20.6012658 C0.158227848,26.9303797 4.90506329,36.4240506 9.65189873,36.4240506 C14.3987342,36.4240506 12.8164557,34.8417722 15.1898734,34.8417722 Z" id="Shape"></path>
                            <path d="M15.1898734,11.1075949 L15.1898734,7.94303797 C15.1846601,6.1974654 13.770889,4.78369431 12.0253165,4.77848101 L8.86075949,4.77848101" id="Shape"></path>
                            <path d="M19.3481013,7.0221519 C22.4921912,6.57979729 24.9634697,4.10916416 25.4066456,0.965189873 C25.443114,0.710248236 25.3573969,0.453017586 25.1752909,0.270911593 C24.9931849,0.0888055999 24.7359543,0.00308852699 24.4810127,0.039556962 C21.3370384,0.482732791 18.8664052,2.95401133 18.4240506,6.09810127 C18.3868678,6.35277247 18.4721837,6.61004089 18.6541726,6.79202989 C18.8361616,6.97401888 19.0934301,7.05933475 19.3481013,7.0221519 L19.3481013,7.0221519 Z" id="Shape"></path>
                        </g>
                    </g>
                </g>
            </g>
        </g>
    </g>
</svg>