<?xml version="1.0" encoding="UTF-8"?>
<svg width="15px" height="15px" viewBox="0 0 15 15" version="1.1"
  xmlns="http://www.w3.org/2000/svg"
  xmlns:xlink="http://www.w3.org/1999/xlink">
  <title>D389697F-224B-456C-97F8-ABA63CBCF260</title>
  <g id="icons" stroke="none" stroke-width="1" fill="none" fill-rule="evenodd">
    <g id="phenqicons" transform="translate(-70.000000, -77.000000)">
      <path d="M78.226,91.976 C78.634,91.976 78.988,91.838 79.288,91.562 L79.288,91.562 L84.562,86.288 C84.838,85.988 84.976,85.634 84.976,85.226 C84.976,84.818 84.838,84.464 84.562,84.164 L84.562,84.164 L77.812,77.414 C77.512,77.138 77.158,77 76.75,77 L76.75,77 L71.476,77 C71.068,77 70.72,77.144 70.432,77.432 C70.144,77.72 70,78.068 70,78.476 L70,78.476 L70,83.75 C70,84.158 70.138,84.512 70.414,84.812 L70.414,84.812 L77.164,91.562 C77.464,91.838 77.818,91.976 78.226,91.976 Z M72.61,80.726 C72.286,80.726 72.016,80.615 71.8,80.393 C71.584,80.171 71.476,79.904 71.476,79.592 C71.476,79.28 71.587,79.016 71.809,78.8 C72.031,78.584 72.298,78.476 72.61,78.476 C72.922,78.476 73.186,78.581 73.402,78.791 C73.618,79.001 73.726,79.268 73.726,79.592 C73.726,79.916 73.618,80.186 73.402,80.402 C73.186,80.618 72.922,80.726 72.61,80.726 Z" id="" fill="currentColor" fill-rule="nonzero"></path>
      <rect id="Rectangle" stroke="#979797" x="37.5" y="44.5" width="80" height="80"></rect>
    </g>
  </g>
</svg>