<?xml version="1.0" encoding="UTF-8"?>
<svg width="60px" height="60px" viewBox="0 0 60 60" version="1.1" xmlns="http://www.w3.org/2000/svg" xmlns:xlink="http://www.w3.org/1999/xlink">
    <title>D0FA924E-2178-48C2-A413-BAA14D42276A</title>
    <g id="desktop" stroke="none" stroke-width="1" fill="none" fill-rule="evenodd">
        <g id="1.0_phenq-design" transform="translate(-533.000000, -1364.000000)">
            <rect fill="#FAFAFA" x="0" y="0" width="1440" height="9871"></rect>
            <rect id="Rectangle" fill="#FFFFFF" x="0" y="1108" width="1440" height="1253"></rect>
            <g id="phenq-supports" transform="translate(533.000000, 1364.000000)">
                <circle id="Oval" fill="#D7F4C8" cx="30" cy="30" r="30"></circle>
                <g id="components/benefits/icons/reduceface" transform="translate(10.632911, 11.392405)" stroke="#273583" stroke-linecap="round" stroke-linejoin="round" stroke-width="1.4">
                    <g id="Group" transform="translate(0.759494, 3.037975)">
                        <g id="Light">
                            <path d="M6.9713126,7.48314529 L9.48403963,4.33406714 C9.82598084,3.8680071 10.3905876,3.61977333 10.9651781,3.68287309 C11.5397685,3.74597285 12.0370487,4.11081979 12.2696979,4.63997959 C12.5023471,5.16913939 12.4350205,5.78222009 12.0930793,6.24828013 L9.55111447,10.0629472 L8.69118052,18.2323198 C11.3070996,15.2569483 18.6165382,15.2569483 20.3002889,18.7689185 C20.3853905,15.8480433 22.0422326,13.2011569 24.6323141,11.848296 C27.2223956,10.4954352 30.3413564,10.6478069 32.7872353,12.2466911 C35.2331141,13.8455754 36.6240638,16.6413566 36.4240506,19.5566181 C36.4240506,36.4801183 0.0918409466,31.6232113 0.0918409466,22.122661 C-0.412080352,19.5514584 2.36034673,9.41455696 3.4713814,5.36598789 C3.80461458,4.30595328 4.35259647,3.32590876 5.08117777,2.486929 C6.06142588,1.29440367 7.52413377,0.603672343 9.06783159,0.603672343 L12.2771051,0.603672343 C13.5770827,0.602631189 14.7971503,1.23091811 15.5513249,2.28976822 C16.3054994,3.34861833 16.5004767,4.70703407 16.0745735,5.93526417 L15.9455834,6.30503577 C15.31759,8.1169796 13.7364811,9.431148 11.8402587,9.71725371 L9.55111447,10.0612273" id="Shape"></path>
                            <line x1="25.8915795" y1="17.7971932" x2="29.3313154" y2="17.7971932" id="Shape"></line>
                            <line x1="27.6114474" y1="15.2173913" x2="27.6114474" y2="23.8167309" id="Shape"></line>
                            <polyline id="Shape" points="24.1717116 22.096863 27.6114474 23.8167309 31.0511833 22.096863"></polyline>
                        </g>
                    </g>
                </g>
            </g>
        </g>
    </g>
</svg>