<?xml version="1.0" encoding="UTF-8"?>
<svg width="60px" height="60px" viewBox="0 0 60 60" version="1.1" xmlns="http://www.w3.org/2000/svg" xmlns:xlink="http://www.w3.org/1999/xlink">
    <title>FCF56884-9BFC-4269-8C6B-5E173848FEDF</title>
    <g id="desktop" stroke="none" stroke-width="1" fill="none" fill-rule="evenodd">
        <g id="1.0_phenq-design" transform="translate(-140.000000, -1607.000000)">
            <rect fill="#FAFAFA" x="0" y="0" width="1440" height="9871"></rect>
            <rect id="Rectangle" fill="#FFFFFF" x="0" y="1108" width="1440" height="1253"></rect>
            <g id="phenq-boostsenergy" transform="translate(140.000000, 1607.000000)">
                <circle id="Oval" fill="#D7F4C8" cx="30" cy="30" r="30"></circle>
                <g id="components/benefits/icons/reduceface" transform="translate(11.392405, 11.392405)" stroke="#273583" stroke-linecap="round" stroke-linejoin="round" stroke-width="1.4">
                    <g id="Group" transform="translate(0.000000, 2.278481)">
                        <g id="Light">
                            <path d="M1.75369198,15.0777954 L12.7768987,15.0777954 C13.0522227,15.0780204 13.3094727,14.940738 13.4625527,14.7118935 L15.7024657,11.3528481 C15.8676744,11.1052171 16.1535886,10.9659303 16.4504165,10.9884742 C16.7472444,11.0110181 17.0088428,11.1918881 17.1347574,11.4616297 L21.5189873,20.8564082 C21.6554293,21.149096 21.9502473,21.3351225 22.2731629,21.3323157 C22.5960784,21.3294449 22.8875804,21.1382639 23.0188555,20.8432226 L25.3626055,15.568961 C25.4933765,15.2693241 25.7889068,15.0753217 26.115836,15.0744989 L36.2209916,15.0744989" id="Shape"></path>
                            <path d="M18.9873418,32.9839135 L2.83491561,16.350211 C-0.0717183917,13.4987807 -0.797170275,9.09339412 1.04166667,5.46050897 L1.04166667,5.46050897 C2.4433252,2.74040134 5.05482825,0.848808181 8.07635506,0.365064601 C11.0978819,-0.118678979 14.1694038,0.863067265 16.350211,3.00962553 L18.9873418,5.41435918 L21.6244726,3.00962553 C23.8049666,0.863061042 26.876271,-0.118711116 29.8975736,0.365048667 C32.9188763,0.84880845 35.5301009,2.74044606 36.9313687,5.46050897 L36.9313687,5.46050897 C38.7700748,9.09313071 38.0453531,13.4981318 35.1397679,16.350211 L18.9873418,32.9839135 Z" id="Shape"></path>
                        </g>
                    </g>
                </g>
            </g>
        </g>
    </g>
</svg>