<?xml version="1.0" encoding="UTF-8"?>
<svg width="60px" height="60px" viewBox="0 0 60 60" version="1.1"
  xmlns="http://www.w3.org/2000/svg"
  xmlns:xlink="http://www.w3.org/1999/xlink">
  <title>3892FBAD-EBA4-40DA-8C30-E3CFD9FE0685</title>
  <g id="icons" stroke="none" stroke-width="1" fill="none" fill-rule="evenodd">
    <g id="phenqicons" transform="translate(-1199.000000, -143.000000)">
      <rect id="Rectangle-Copy-24" stroke="#979797" x="1187.5" y="134.5" width="80" height="80"></rect>
      <text id="“" font-family="GothamRounded-Medium, Gotham Rounded" font-size="59.9999964" font-weight="400" fill="currentColor">
        <tspan x="1214" y="204.599999">“</tspan>
      </text>
      <g id="Group-2" transform="translate(1199.000000, 143.000000)">
        <circle id="Oval" fill="#D7F4C8" cx="30" cy="30" r="30"></circle>
        <path d="M36.2399989,36.5800006 C38.6999988,36.5800006 40.3199987,34.8400007 40.3199987,32.5600008 L40.3199987,32.0800008 C40.3199987,29.920001 38.6399988,28.480001 36.8999989,28.0000011 C36.7799989,25.3600016 38.2199988,23.5000013 40.9799986,22.6600014 C41.8199986,22.4200014 42.4199992,21.8800014 42.4199992,21.0400015 C42.4199992,20.0800015 41.7599986,19.3600016 40.4999987,19.3600016 C38.8199988,19.3600016 36.4799989,20.3200015 34.859999,21.9400014 C32.9999991,23.8000013 31.9199992,26.6200012 31.9199992,30.7000009 L31.9199992,31.3000009 C31.9199992,34.5400007 33.5999991,36.5800006 36.2399989,36.5800006 Z M22.3199997,36.5800006 C24.7799996,36.5800006 26.3999995,34.8400007 26.3999995,32.5600008 L26.3999995,32.0800008 C26.3999995,29.920001 24.7199996,28.480001 22.9799997,28.0000011 C22.8599997,25.3600016 24.2999996,23.5000013 27.0599995,22.6600014 C27.8999994,22.4200014 28.5,21.8800014 28.5,21.0400015 C28.5,20.0800015 27.8999994,19.3600016 26.6399995,19.3600016 C24.8999996,19.3600016 22.5599997,20.3200015 21,21.9400014 C19.0799999,23.8000013 18,26.6200012 18,30.7000009 L18,31.3000009 C18,34.5400007 19.6799999,36.5800006 22.3199997,36.5800006 Z" id="“" fill="currentColor" fill-rule="nonzero"></path>
      </g>
    </g>
  </g>
</svg>