<?xml version="1.0" encoding="UTF-8"?>
<svg width="76px" height="75px" viewBox="0 0 76 75" version="1.1" xmlns="http://www.w3.org/2000/svg" xmlns:xlink="http://www.w3.org/1999/xlink">
    <title>82B266E4-AF38-4E1D-921C-8A761CDC35FC</title>
    <g id="icons" stroke="none" stroke-width="1" fill="none" fill-rule="evenodd">
        <g id="phenqicons" transform="translate(-54.000000, -342.000000)">
            <rect id="Rectangle-Copy-29" stroke="#979797" x="37.5" y="324.5" width="109" height="109"></rect>
            <g id="Group" transform="translate(54.500000, 342.000000)">
                <circle id="Oval" fill="#FFFFFF" cx="37.5" cy="37.5" r="37.5"></circle>
                <path d="M44.8,47.525 C47.875,47.525 49.9,45.35 49.9,42.5 L49.9,41.9 C49.9,39.2 47.8,37.4 45.625,36.8 C45.475,33.5 47.275,31.175 50.725,30.125 C51.775,29.825 52.525,29.15 52.525,28.1 C52.525,26.9 51.7,26 50.125,26 C48.025,26 45.1,27.2 43.075,29.225 C40.75,31.55 39.4,35.075 39.4,40.175 L39.4,40.925 C39.4,44.975 41.5,47.525 44.8,47.525 Z M27.4,47.525 C30.475,47.525 32.5,45.35 32.5,42.5 L32.5,41.9 C32.5,39.2 30.4,37.4 28.225,36.8 C28.075,33.5 29.875,31.175 33.325,30.125 C34.375,29.825 35.125,29.15 35.125,28.1 C35.125,26.9 34.375,26 32.8,26 C30.625,26 27.7,27.2 25.75,29.225 C23.35,31.55 22,35.075 22,40.175 L22,40.925 C22,44.975 24.1,47.525 27.4,47.525 Z" id="“" fill="#273583" fill-rule="nonzero"></path>
            </g>
        </g>
    </g>
</svg>