<?xml version="1.0" encoding="UTF-8"?>
<svg width="14px" height="15px" viewBox="0 0 14 15" version="1.1" xmlns="http://www.w3.org/2000/svg" xmlns:xlink="http://www.w3.org/1999/xlink">
    <title>EC7FB68B-98E5-491F-8E82-E2A5EA08A430</title>
    <g id="icons" stroke="none" stroke-width="1" fill="none" fill-rule="evenodd">
        <g id="phenqicons" transform="translate(-661.000000, -167.000000)">
            <rect id="Rectangle-Copy-28" stroke="#979797" x="629.5" y="134.5" width="80" height="80"></rect>
            <path d="M668,181.056 C669.216,181.056 670.341333,180.752 671.376,180.144 C672.378667,179.568 673.168,178.778667 673.744,177.776 C674.352,176.741333 674.656,175.616 674.656,174.4 C674.656,173.184 674.352,172.058667 673.744,171.024 C673.168,170.021333 672.378667,169.232 671.376,168.656 C670.341333,168.048 669.216,167.744 668,167.744 C666.794667,167.744 665.674667,168.048 664.64,168.656 C663.637333,169.242667 662.842667,170.037333 662.256,171.04 C661.648,172.074667 661.344,173.194667 661.344,174.4 C661.344,175.605333 661.648,176.725333 662.256,177.76 C662.832,178.762667 663.621333,179.557333 664.624,180.144 C665.658667,180.752 666.784,181.056 668,181.056 Z M668,179.744 C667.04,179.744 666.144,179.498667 665.312,179.008 C664.501333,178.538667 663.861333,177.898667 663.392,177.088 C662.901333,176.256 662.656,175.36 662.656,174.4 C662.656,173.44 662.901333,172.544 663.392,171.712 C663.861333,170.901333 664.501333,170.261333 665.312,169.792 C666.144,169.301333 667.04,169.056 668,169.056 C668.96,169.056 669.856,169.301333 670.688,169.792 C671.498667,170.261333 672.138667,170.901333 672.608,171.712 C673.098667,172.544 673.344,173.44 673.344,174.4 C673.344,175.36 673.098667,176.256 672.608,177.088 C672.138667,177.898667 671.498667,178.538667 670.688,179.008 C669.856,179.498667 668.96,179.744 668,179.744 Z M668.656,172.4 L668.656,171.056 L667.344,171.056 L667.344,172.4 L668.656,172.4 Z M668.656,177.744 L668.656,173.744 L667.344,173.744 L667.344,177.744 L668.656,177.744 Z" id="tooltip" fill="#0077BB" fill-rule="nonzero"></path>
        </g>
    </g>
</svg>