<?xml version="1.0" encoding="UTF-8"?>
<svg width="43px" height="43px" viewBox="0 0 43 43" version="1.1" xmlns="http://www.w3.org/2000/svg" xmlns:xlink="http://www.w3.org/1999/xlink">
    <title>D6997EEC-0928-4A5F-A094-1AC36BE630A3</title>
    <g id="icons" stroke="none" stroke-width="1" fill="none" fill-rule="evenodd">
        <g id="phenqicons" transform="translate(-743.000000, -64.000000)">
            <rect id="Rectangle-Copy-7" stroke="#979797" x="724.5" y="44.5" width="80" height="80"></rect>
            <g id="twitter" transform="translate(743.000000, 64.000000)">
                <circle id="Oval" stroke="#FFFFFF" cx="21.2500006" cy="21.2500006" r="20.7500006"></circle>
                <path d="M18.2267932,28.6054065 C24.8562654,28.6054065 28.4835018,23.1143285 28.4835018,18.3486979 C28.4835018,18.1924477 28.4835018,18.0361975 28.4723411,17.8799473 C29.175467,17.3665538 29.789307,16.7303924 30.280379,16.0161058 C29.6330568,16.295124 28.9299309,16.4960171 28.2044837,16.5741422 C28.9522524,16.1277131 29.5214495,15.4245872 29.789307,14.5875327 C29.0973419,15.0004796 28.3160909,15.3018192 27.5013578,15.4580694 C26.8428749,14.7549436 25.9053738,14.3196752 24.8674261,14.3196752 C22.8696559,14.3196752 21.2625111,15.9379807 21.2625111,17.9245902 C21.2625111,18.2036084 21.2959933,18.4826266 21.3517969,18.7504841 C18.3607219,18.5942339 15.693308,17.1656607 13.9187523,14.9781581 C13.606252,15.5138731 13.4276803,16.1277131 13.4276803,16.7973567 C13.4276803,18.0473582 14.0638418,19.1522702 15.0348251,19.7995924 C14.4433065,19.777271 13.8852702,19.6098601 13.4053589,19.3420026 L13.4053589,19.3866455 L13.4053589,19.3866455 C13.4053589,21.1388798 14.6441996,22.5897743 16.2959873,22.9245962 C15.9946477,23.0027213 15.6709866,23.0473642 15.3473255,23.0473642 C15.1129502,23.0473642 14.8897356,23.0250427 14.6665211,22.9915605 C15.1241109,24.4201337 16.4522375,25.4580813 18.0370608,25.4915635 C16.7982201,26.4625468 15.2468789,27.0317439 13.5616091,27.0317439 C13.2602694,27.0317439 12.9812512,27.0205832 12.6910723,26.987101 C14.2870563,28.013888 16.18438,28.6054065 18.2267932,28.6054065 Z" id="" fill="#FFFFFF" fill-rule="nonzero"></path>
            </g>
        </g>
    </g>
</svg>