<?xml version="1.0" encoding="UTF-8"?>
<svg width="43px" height="43px" viewBox="0 0 43 43" version="1.1" xmlns="http://www.w3.org/2000/svg" xmlns:xlink="http://www.w3.org/1999/xlink">
    <title>E8F24A5E-D529-44AC-8902-1DF68F9D4D8A</title>
    <g id="icons" stroke="none" stroke-width="1" fill="none" fill-rule="evenodd">
        <g id="phenqicons" transform="translate(-1022.000000, -64.000000)">
            <rect id="Rectangle-Copy-10" stroke="#979797" x="1003.5" y="44.5" width="80" height="80"></rect>
            <g id="twitter" transform="translate(1022.000000, 64.000000)">
                <circle id="Oval" fill="#009FE3" cx="21.2500006" cy="21.2500006" r="21.2500006"></circle>
                <path d="M17.5357209,28.2857313 C24.1651931,28.2857313 27.7924295,22.7946533 27.7924295,18.0290227 C27.7924295,17.8727725 27.7924295,17.7165223 27.7812688,17.5602721 C28.4843947,17.0468786 29.0982347,16.4107172 29.5893067,15.6964306 C28.9419845,15.9754488 28.2388586,16.1763419 27.5134114,16.254467 C28.2611801,15.8080379 28.8303772,15.104912 29.0982347,14.2678575 C28.4062696,14.6808044 27.6250186,14.982144 26.8102855,15.1383942 C26.1518026,14.4352684 25.2143015,14 24.1763538,14 C22.1785836,14 20.5714388,15.6183055 20.5714388,17.604915 C20.5714388,17.8839332 20.604921,18.1629514 20.6607246,18.4308089 C17.6696496,18.2745587 15.0022357,16.8459855 13.22768,14.6584829 C12.9151797,15.1941979 12.736608,15.8080379 12.736608,16.4776815 C12.736608,17.727683 13.3727695,18.832595 14.3437528,19.4799172 C13.7522342,19.4575958 13.1941979,19.2901849 12.7142866,19.0223274 L12.7142866,19.0669703 L12.7142866,19.0669703 C12.7142866,20.8192046 13.9531273,22.2700991 15.604915,22.604921 C15.3035754,22.6830461 14.9799143,22.727689 14.6562532,22.727689 C14.4218779,22.727689 14.1986633,22.7053675 13.9754488,22.6718853 C14.4330386,24.1004585 15.7611652,25.1384061 17.3459885,25.1718883 C16.1071478,26.1428716 14.5558066,26.7120687 12.8705368,26.7120687 C12.5691971,26.7120687 12.2901789,26.700908 12,26.6674258 C13.595984,27.6942128 15.4933077,28.2857313 17.5357209,28.2857313 Z" id="" fill="#FFFFFF" fill-rule="nonzero"></path>
            </g>
        </g>
    </g>
</svg>