<?xml version="1.0" encoding="UTF-8"?>
<svg width="76px" height="75px" viewBox="0 0 76 75" version="1.1" xmlns="http://www.w3.org/2000/svg" xmlns:xlink="http://www.w3.org/1999/xlink">
    <title>044B2789-A5BB-4373-9D5E-0EE1817930DB</title>
    <g id="icons" stroke="none" stroke-width="1" fill="none" fill-rule="evenodd">
        <g id="phenqicons" transform="translate(-421.000000, -342.000000)">
            <rect id="Rectangle-Copy-32" stroke="#979797" x="407" y="324.5" width="109" height="109"></rect>
            <g id="vegan" transform="translate(421.500000, 342.000000)">
                <circle id="Oval" fill="#FFFFFF" cx="37.5" cy="37.5" r="37.5"></circle>
                <path d="M23.707,58 L25.94,50.806 L24.631,50.806 L23.63,54.425 C23.52,54.8356667 23.4191667,55.2243333 23.3275,55.591 C23.2358333,55.9576667 23.1276667,56.35 23.003,56.768 L23.003,56.768 L22.959,56.768 C22.8343333,56.35 22.7261667,55.9576667 22.6345,55.591 C22.5428333,55.2243333 22.4383333,54.8356667 22.321,54.425 L22.321,54.425 L21.309,50.806 L19.956,50.806 L22.2,58 L23.707,58 Z M31.836333,58 L31.836333,56.922 L28.668333,56.922 L28.668333,54.799 L31.253333,54.799 L31.253333,53.721 L28.668333,53.721 L28.668333,51.884 L31.726333,51.884 L31.726333,50.806 L27.392333,50.806 L27.392333,58 L31.836333,58 Z M36.907666,58.132 C37.3989993,58.132 37.8444993,58.0495 38.244166,57.8845 C38.6438327,57.7195 38.964666,57.516 39.206666,57.274 L39.206666,57.274 L39.206666,54.106 L36.698666,54.106 L36.698666,55.151 L38.062666,55.151 L38.062666,56.702 C37.9453327,56.8046667 37.7949993,56.8835 37.611666,56.9385 C37.4283327,56.9935 37.2339993,57.021 37.028666,57.021 C36.302666,57.021 35.7544993,56.7881667 35.384166,56.3225 C35.0138327,55.8568333 34.828666,55.2133333 34.828666,54.392 C34.828666,53.9886667 34.8799993,53.6256667 34.982666,53.303 C35.0853327,52.9803333 35.230166,52.7071667 35.417166,52.4835 C35.604166,52.2598333 35.8278327,52.0875 36.088166,51.9665 C36.3484993,51.8455 36.6399993,51.785 36.962666,51.785 C37.2999993,51.785 37.5804993,51.8455 37.804166,51.9665 C38.0278327,52.0875 38.2313327,52.236 38.414666,52.412 L38.414666,52.412 L39.096666,51.587 C38.8693327,51.3523333 38.5778327,51.1415 38.222166,50.9545 C37.8664993,50.7675 37.4319993,50.674 36.918666,50.674 C36.4419993,50.674 35.9964993,50.7583333 35.582166,50.927 C35.1678327,51.0956667 34.8084993,51.3413333 34.504166,51.664 C34.1998327,51.9866667 33.959666,52.3808333 33.783666,52.8465 C33.607666,53.3121667 33.519666,53.8383333 33.519666,54.425 C33.519666,55.019 33.6039993,55.547 33.772666,56.009 C33.9413327,56.471 34.1778327,56.8596667 34.482166,57.175 C34.7864993,57.4903333 35.1458327,57.7286667 35.560166,57.89 C35.9744993,58.0513333 36.423666,58.132 36.907666,58.132 Z M41.681999,58 L42.242999,56.053 L44.662999,56.053 L45.223999,58 L46.565999,58 L44.222999,50.806 L42.726999,50.806 L40.383999,58 L41.681999,58 Z M44.376999,55.052 L42.539999,55.052 L42.792999,54.172 C42.9103323,53.7906667 43.0203323,53.4001667 43.122999,53.0005 C43.2256657,52.6008333 43.3283323,52.1993333 43.430999,51.796 L43.430999,51.796 L43.474999,51.796 C43.5776657,52.192 43.6821657,52.5916667 43.788499,52.995 C43.8948323,53.3983333 44.0066657,53.7906667 44.123999,54.172 L44.123999,54.172 L44.376999,55.052 Z M49.261332,58 L49.261332,54.854 C49.261332,54.4506667 49.2411653,54.04 49.200832,53.622 C49.1604987,53.204 49.1256653,52.8043333 49.096332,52.423 L49.096332,52.423 L49.140332,52.423 L49.877332,53.952 L52.121332,58 L53.430332,58 L53.430332,50.806 L52.209332,50.806 L52.209332,53.93 C52.209332,54.3333333 52.2294987,54.7495 52.269832,55.1785 C52.3101653,55.6075 52.3449987,56.009 52.374332,56.383 L52.374332,56.383 L52.330332,56.383 L51.593332,54.854 L49.349332,50.806 L48.040332,50.806 L48.040332,58 L49.261332,58 Z" id="VEGAN" fill="#273583" fill-rule="nonzero"></path>
                <path d="M33.2531891,43.0325187 C27.1766294,43.0317334 22.2510323,38.2363981 22.2510323,32.3213238 C22.2510323,16.7878158 41.4533094,24.7614841 50.6979845,17.2926583 C50.900175,17.1453038 51.1695559,17.1190269 51.3977631,17.2243979 C51.6288963,17.3185534 51.7943252,17.5214545 51.8360379,17.7619486 C54.6585272,33.8500724 42.4920205,43.0325187 33.2531891,43.0325187 Z" id="Shape" stroke="#273583" stroke-width="2" stroke-linecap="round" stroke-linejoin="round"></path>
                <path d="M38.2510323,29.457231 C33.7619724,30.676924 29.5553699,32.7469608 25.864972,35.5523162 L20.2510323,40.2878817" id="Shape" stroke="#273583" stroke-width="2" stroke-linecap="round" stroke-linejoin="round"></path>
            </g>
        </g>
    </g>
</svg>