<svg
  xmlns="http://www.w3.org/2000/svg" viewBox="0 0 100 100" fill="#273583" aria-label="Chicken">
  <path d="M71.7 22.4l-3.3 4.1C61 31 55.4 31.2 49 33 22 30.6 1.5 49.6.8 67c0 20 21.8 20 45 20H87c14.4-2.3 16.4-18.8 3.4-22.7-1-9.4-6.3-17.5-16.1-23.4.8-6 2.4-8.3 5.5-11.9 9.5 2.2 10.9-10.8 2-10.8-5-10.8-13.5-1.5-10.2 4.3zm7.2-.6c9.7-3.7 6 9.6.2 2.8l-3.7 4.6-3-2.4 3.7-4.6c-6.5-3.7 3.7-11.2 2.8-.4zm-9 7.8l3.4 2.7c-2 4.8-1.8 5.6-2 18.3-.2 12.6-14.6 23.1-27.8 12.8-13.1-10.2-3.9-19.8 4.4-25.7 6.1-4.3 17-5 22-8zm5 15.6A27.3 27.3 0 0187.3 67c12.9 1.7 8.3 16.3-.3 16.5H45.8c-26 0-41.6-1-41.6-16.5 0-16.4 18.4-29.9 40-31-14 11.1-15.5 21.1-3.3 31 12.2 10 37.3 4 34-21.8z"/>
</svg>