<svg xmlns="http://www.w3.org/2000/svg" xmlns:xlink="http://www.w3.org/1999/xlink" viewBox="0 0 380 94.72"><defs><style>.cls-1{fill:none;}.cls-2{clip-path:url(#clip-path);}.cls-3{fill:url(#linear-gradient);}</style><clipPath id="clip-path" transform="translate(0 0)"><path class="cls-1" d="M175.3,30.75c15.31,0,23,12.43,23.94,25.9H150.71c1.18-14.78,11.38-25.9,24.59-25.9M143.91,59.66v.26c0,20.81,15.17,34.8,32.7,34.8,12,0,19.49-4.31,26-10.86a3.12,3.12,0,0,0,1.05-2.22,3.07,3.07,0,0,0-3.14-3,2.82,2.82,0,0,0-2.09.92c-5.36,5.23-12,9.16-21.59,9.16-13.08,0-25-9.69-26.16-26.3H203a3.26,3.26,0,0,0,3.14-3c0-19.1-11.91-34.54-30.61-34.54-18.06,0-31.66,15.44-31.66,34.8m78.88-20.8V29.73a3.21,3.21,0,1,0-6.41,0V90.41a3.16,3.16,0,0,0,3.27,3.27,3.05,3.05,0,0,0,3.14-3.27V54.56c0-13.87,10.08-23.81,23.16-23.81,13.47,0,21.19,9,21.19,22.76v36.9a3.16,3.16,0,0,0,3.27,3.27,3.06,3.06,0,0,0,3.14-3.27V52.34c0-16-9.81-27.48-26.69-27.48-12.16,0-19.62,6.15-24.07,14m-216-31H32.71c16.48,0,27.73,7.59,27.73,22.11v.27c0,13.6-11.51,22.5-28.52,22.5H6.8ZM3.4,1.58A3.46,3.46,0,0,0,0,5V90.27a3.47,3.47,0,0,0,3.4,3.41,3.47,3.47,0,0,0,3.4-3.41V59H31.53c19.1,0,35.71-9.95,35.71-29.18v-.26c0-17.66-13.86-28-34-28ZM303.73,47.37V47.1c0-15.7,11.25-28.52,27.47-28.52s27.74,13.08,27.74,28.79v.26a32.06,32.06,0,0,1-2.49,12.55l-10.07-9a9.33,9.33,0,0,0-6.68-2.75A9.5,9.5,0,0,0,330.28,58,9.91,9.91,0,0,0,334,65.55l9.55,8.11a27.53,27.53,0,0,1-12,2.48c-16.22,0-27.73-13.08-27.73-28.77m-21.07,0v.26c0,26,20.28,47.09,48.54,47.09a49.82,49.82,0,0,0,27.21-7.85l5,4.45a9.43,9.43,0,0,0,16.09-6.8,9.87,9.87,0,0,0-3.67-7.59l-3.92-3.27A47,47,0,0,0,380,47.37V47.1C380,21.07,359.72,0,331.46,0s-48.8,21.32-48.8,47.36M76.79,3.27V90.41a3.16,3.16,0,0,0,3.27,3.27,3.05,3.05,0,0,0,3.14-3.27V54.56c0-13.87,10.08-23.81,23.16-23.81,13.48,0,21.19,9,21.19,22.76v36.9a3.16,3.16,0,0,0,3.27,3.27A3.05,3.05,0,0,0,134,90.41V52.34c0-16-9.81-27.48-26.68-27.48-12.17,0-19.63,6.15-24.08,14V3.27A3.23,3.23,0,0,0,79.93,0a3.13,3.13,0,0,0-3.14,3.27"/></clipPath><linearGradient id="linear-gradient" x1="-229.27" y1="319.28" x2="-227.08" y2="319.28" gradientTransform="matrix(173.14, 0, 0, -173.14, 39696.44, 55327.67)" gradientUnits="userSpaceOnUse"><stop offset="0" stop-color="#283583"/><stop offset="0.41" stop-color="#1666af"/><stop offset="0.8" stop-color="#068fd5"/><stop offset="1" stop-color="#009fe3"/></linearGradient></defs><g id="Layer_2" data-name="Layer 2"><g id="Layer_1-2" data-name="Layer 1"><g class="cls-2"><rect class="cls-3" width="380" height="94.72"/></g></g></g></svg>